  0
SECTION
  2
HEADER
  9
$ANGBASE
  50
0.0
  9
$ANGDIR
  70
  1
  9
$MEASUREMENT
  70
0
  0
ENDSEC
  0
SECTION
  2
TABLES
  0
TABLE
  2
LTYPE
  70
1
  0
LTYPE
  2
CONTINUOUS
  70
0
  3
Solid line
  72
65
  73
0
  40
0.0
  0
ENDTAB
  0
TABLE
  2
STYLE
  70
4
  0
STYLE
  2
KICAD
  70
0
  40
0
  41
1
  42
1
  50
0
  71
0
  3
isocp.shx
  0
STYLE
  2
KICADB
  70
0
  40
0
  41
1
  42
1
  50
0
  71
0
  3
isocp.shx
  0
STYLE
  2
KICADI
  70
0
  40
0
  41
1
  42
1
  50
15
  71
0
  3
isocp.shx
  0
STYLE
  2
KICADBI
  70
0
  40
0
  41
1
  42
1
  50
15
  71
0
  3
isocp.shx
  0
ENDTAB
  0
TABLE
  2
LAYER
  70
30
  0
LAYER
  2
BLACK
  70
0
  62
7
  6
CONTINUOUS
  0
LAYER
  2
GRAY1
  70
0
  62
251
  6
CONTINUOUS
  0
LAYER
  2
GRAY2
  70
0
  62
8
  6
CONTINUOUS
  0
LAYER
  2
GRAY3
  70
0
  62
9
  6
CONTINUOUS
  0
LAYER
  2
WHITE
  70
0
  62
7
  6
CONTINUOUS
  0
LAYER
  2
LYELLOW
  70
0
  62
51
  6
CONTINUOUS
  0
LAYER
  2
BLUE1
  70
0
  62
178
  6
CONTINUOUS
  0
LAYER
  2
GREEN1
  70
0
  62
98
  6
CONTINUOUS
  0
LAYER
  2
CYAN1
  70
0
  62
138
  6
CONTINUOUS
  0
LAYER
  2
RED1
  70
0
  62
18
  6
CONTINUOUS
  0
LAYER
  2
MAGENTA1
  70
0
  62
228
  6
CONTINUOUS
  0
LAYER
  2
BROWN1
  70
0
  62
58
  6
CONTINUOUS
  0
LAYER
  2
BLUE2
  70
0
  62
5
  6
CONTINUOUS
  0
LAYER
  2
GREEN2
  70
0
  62
3
  6
CONTINUOUS
  0
LAYER
  2
CYAN2
  70
0
  62
4
  6
CONTINUOUS
  0
LAYER
  2
RED2
  70
0
  62
1
  6
CONTINUOUS
  0
LAYER
  2
MAGENTA2
  70
0
  62
6
  6
CONTINUOUS
  0
LAYER
  2
BROWN2
  70
0
  62
54
  6
CONTINUOUS
  0
LAYER
  2
BLUE3
  70
0
  62
171
  6
CONTINUOUS
  0
LAYER
  2
GREEN3
  70
0
  62
91
  6
CONTINUOUS
  0
LAYER
  2
CYAN3
  70
0
  62
131
  6
CONTINUOUS
  0
LAYER
  2
RED3
  70
0
  62
11
  6
CONTINUOUS
  0
LAYER
  2
MAGENTA3
  70
0
  62
221
  6
CONTINUOUS
  0
LAYER
  2
YELLOW3
  70
0
  62
2
  6
CONTINUOUS
  0
LAYER
  2
BLUE4
  70
0
  62
5
  6
CONTINUOUS
  0
LAYER
  2
GREEN4
  70
0
  62
3
  6
CONTINUOUS
  0
LAYER
  2
CYAN4
  70
0
  62
4
  6
CONTINUOUS
  0
LAYER
  2
RED4
  70
0
  62
1
  6
CONTINUOUS
  0
LAYER
  2
MAGENTA4
  70
0
  62
6
  6
CONTINUOUS
  0
LAYER
  2
YELLOW4
  70
0
  62
2
  6
CONTINUOUS
  0
ENDTAB
  0
ENDSEC
  0
SECTION
  2
ENTITIES
0
LINE
8
Black
10
189.004
20
-96.9508
11
189.009
21
-96.9508
0
LINE
8
Black
10
189.009
20
-96.9508
11
189.013
21
-96.9523
0
LINE
8
Black
10
189.013
20
-96.9523
11
189.017
21
-96.953
0
LINE
8
Black
10
189.017
20
-96.953
11
189.021
21
-96.9552
0
LINE
8
Black
10
189.021
20
-96.9552
11
189.025
21
-96.9567
0
LINE
8
Black
10
189.025
20
-96.9567
11
189.028
21
-96.9595
0
LINE
8
Black
10
189.028
20
-96.9595
11
189.032
21
-96.9617
0
LINE
8
Black
10
189.032
20
-96.9617
11
189.035
21
-96.965
0
LINE
8
Black
10
189.035
20
-96.965
11
189.038
21
-96.9679
0
LINE
8
Black
10
189.038
20
-96.9679
11
189.04
21
-96.9716
0
LINE
8
Black
10
189.04
20
-96.9716
11
189.043
21
-96.975
0
LINE
8
Black
10
189.043
20
-96.975
11
189.045
21
-96.9791
0
LINE
8
Black
10
189.045
20
-96.9791
11
189.047
21
-96.9829
0
LINE
8
Black
10
189.047
20
-96.9829
11
189.048
21
-96.9872
0
LINE
8
Black
10
189.048
20
-96.9872
11
189.049
21
-96.9913
0
LINE
8
Black
10
189.049
20
-96.9913
11
189.049
21
-96.9957
0
LINE
8
Black
10
189.049
20
-96.9957
11
189.05
21
-97
0
LINE
8
Black
10
189.05
20
-97
11
189.05
21
-128
0
LINE
8
Black
10
189.05
20
-128
11
189.049
21
-128.004
0
LINE
8
Black
10
189.049
20
-128.004
11
189.049
21
-128.009
0
LINE
8
Black
10
189.049
20
-128.009
11
189.048
21
-128.013
0
LINE
8
Black
10
189.048
20
-128.013
11
189.047
21
-128.017
0
LINE
8
Black
10
189.047
20
-128.017
11
189.045
21
-128.021
0
LINE
8
Black
10
189.045
20
-128.021
11
189.043
21
-128.025
0
LINE
8
Black
10
189.043
20
-128.025
11
189.04
21
-128.028
0
LINE
8
Black
10
189.04
20
-128.028
11
189.038
21
-128.032
0
LINE
8
Black
10
189.038
20
-128.032
11
189.035
21
-128.035
0
LINE
8
Black
10
189.035
20
-128.035
11
189.032
21
-128.038
0
LINE
8
Black
10
189.032
20
-128.038
11
189.028
21
-128.04
0
LINE
8
Black
10
189.028
20
-128.04
11
189.025
21
-128.043
0
LINE
8
Black
10
189.025
20
-128.043
11
189.021
21
-128.045
0
LINE
8
Black
10
189.021
20
-128.045
11
189.017
21
-128.047
0
LINE
8
Black
10
189.017
20
-128.047
11
189.013
21
-128.048
0
LINE
8
Black
10
189.013
20
-128.048
11
189.009
21
-128.049
0
LINE
8
Black
10
189.009
20
-128.049
11
189.004
21
-128.049
0
LINE
8
Black
10
189.004
20
-128.049
11
189
21
-128.05
0
LINE
8
Black
10
189
20
-128.05
11
132
21
-128.05
0
LINE
8
Black
10
132
20
-128.05
11
131.996
21
-128.049
0
LINE
8
Black
10
131.996
20
-128.049
11
131.991
21
-128.049
0
LINE
8
Black
10
131.991
20
-128.049
11
131.987
21
-128.048
0
LINE
8
Black
10
131.987
20
-128.048
11
131.983
21
-128.047
0
LINE
8
Black
10
131.983
20
-128.047
11
131.979
21
-128.045
0
LINE
8
Black
10
131.979
20
-128.045
11
131.975
21
-128.043
0
LINE
8
Black
10
131.975
20
-128.043
11
131.972
21
-128.04
0
LINE
8
Black
10
131.972
20
-128.04
11
131.968
21
-128.038
0
LINE
8
Black
10
131.968
20
-128.038
11
131.965
21
-128.035
0
LINE
8
Black
10
131.965
20
-128.035
11
131.962
21
-128.032
0
LINE
8
Black
10
131.962
20
-128.032
11
131.96
21
-128.028
0
LINE
8
Black
10
131.96
20
-128.028
11
131.957
21
-128.025
0
LINE
8
Black
10
131.957
20
-128.025
11
131.955
21
-128.021
0
LINE
8
Black
10
131.955
20
-128.021
11
131.953
21
-128.017
0
LINE
8
Black
10
131.953
20
-128.017
11
131.952
21
-128.013
0
LINE
8
Black
10
131.952
20
-128.013
11
131.951
21
-128.009
0
LINE
8
Black
10
131.951
20
-128.009
11
131.951
21
-128.004
0
LINE
8
Black
10
131.951
20
-128.004
11
131.95
21
-128
0
LINE
8
Black
10
131.95
20
-128
11
131.95
21
-97
0
LINE
8
Black
10
131.95
20
-97
11
131.951
21
-96.9957
0
LINE
8
Black
10
131.951
20
-96.9957
11
131.951
21
-96.9913
0
LINE
8
Black
10
131.951
20
-96.9913
11
131.952
21
-96.9872
0
LINE
8
Black
10
131.952
20
-96.9872
11
131.953
21
-96.9829
0
LINE
8
Black
10
131.953
20
-96.9829
11
131.955
21
-96.9791
0
LINE
8
Black
10
131.955
20
-96.9791
11
131.957
21
-96.975
0
LINE
8
Black
10
131.957
20
-96.975
11
131.96
21
-96.9716
0
LINE
8
Black
10
131.96
20
-96.9716
11
131.962
21
-96.9679
0
LINE
8
Black
10
131.962
20
-96.9679
11
131.965
21
-96.965
0
LINE
8
Black
10
131.965
20
-96.965
11
131.968
21
-96.9617
0
LINE
8
Black
10
131.968
20
-96.9617
11
131.972
21
-96.9595
0
LINE
8
Black
10
131.972
20
-96.9595
11
131.975
21
-96.9567
0
LINE
8
Black
10
131.975
20
-96.9567
11
131.979
21
-96.9552
0
LINE
8
Black
10
131.979
20
-96.9552
11
131.983
21
-96.953
0
LINE
8
Black
10
131.983
20
-96.953
11
131.987
21
-96.9523
0
LINE
8
Black
10
131.987
20
-96.9523
11
131.991
21
-96.9508
0
LINE
8
Black
10
131.991
20
-96.9508
11
131.996
21
-96.9508
0
LINE
8
Black
10
131.996
20
-96.9508
11
132
21
-96.95
0
LINE
8
Black
10
132
20
-96.95
11
189
21
-96.95
0
LINE
8
Black
10
189
20
-96.95
11
189.004
21
-96.9508
0
LINE
8
Black
10
132.05
20
-97.05
11
132.05
21
-127.95
0
LINE
8
Black
10
132.05
20
-127.95
11
188.95
21
-127.95
0
LINE
8
Black
10
188.95
20
-127.95
11
188.95
21
-97.05
0
LINE
8
Black
10
188.95
20
-97.05
11
132.05
21
-97.05
  0
ENDSEC
  0
EOF
