G04 #@! TF.FileFunction,Soldermask,Bot*
%FSLAX46Y46*%
G04 Gerber Fmt 4.6, Leading zero omitted, Abs format (unit mm)*
G04 Created by KiCad (PCBNEW (2016-08-24 BZR 7090, Git 532a5fb)-product) date 10/24/16 18:53:44*
%MOMM*%
%LPD*%
G01*
G04 APERTURE LIST*
%ADD10C,0.100000*%
%ADD11R,1.727200X1.727200*%
%ADD12O,1.727200X1.727200*%
%ADD13C,3.500000*%
%ADD14O,1.727200X2.032000*%
%ADD15C,1.700000*%
%ADD16C,1.600000*%
%ADD17R,1.727200X2.032000*%
%ADD18C,2.000000*%
%ADD19R,1.998980X1.998980*%
G04 APERTURE END LIST*
D10*
D11*
X119818000Y-114390000D03*
D12*
X119818000Y-116930000D03*
X122358000Y-114390000D03*
X122358000Y-116930000D03*
X124898000Y-114390000D03*
X124898000Y-116930000D03*
X127438000Y-114390000D03*
X127438000Y-116930000D03*
X129978000Y-114390000D03*
X129978000Y-116930000D03*
D13*
X130498000Y-161865000D03*
X106498000Y-161865000D03*
D14*
X138938000Y-123825000D03*
X141478000Y-123825000D03*
X144018000Y-123825000D03*
X146558000Y-123825000D03*
X149098000Y-123825000D03*
X151638000Y-123825000D03*
X154178000Y-123825000D03*
X156718000Y-123825000D03*
X161798000Y-123825000D03*
X164338000Y-123825000D03*
X166878000Y-123825000D03*
X169418000Y-123825000D03*
X171958000Y-123825000D03*
X174498000Y-123825000D03*
X129794000Y-75565000D03*
X132334000Y-75565000D03*
X134874000Y-75565000D03*
X137414000Y-75565000D03*
X139954000Y-75565000D03*
X142494000Y-75565000D03*
X145034000Y-75565000D03*
X147574000Y-75565000D03*
X150114000Y-75565000D03*
X152654000Y-75565000D03*
X156718000Y-75565000D03*
X159258000Y-75565000D03*
X161798000Y-75565000D03*
X164338000Y-75565000D03*
X166878000Y-75565000D03*
X169418000Y-75565000D03*
X171958000Y-75565000D03*
X174498000Y-75565000D03*
D11*
X174498000Y-95885000D03*
D12*
X177038000Y-95885000D03*
X174498000Y-98425000D03*
X177038000Y-98425000D03*
X174498000Y-100965000D03*
X177038000Y-100965000D03*
D15*
X174498000Y-117945000D03*
X177038000Y-117945000D03*
X174498000Y-115405000D03*
X177038000Y-115405000D03*
X174498000Y-112865000D03*
X177038000Y-112865000D03*
X174498000Y-110325000D03*
X177038000Y-110325000D03*
D16*
X169748000Y-164615000D03*
X168281330Y-169615000D03*
D17*
X169958000Y-86365000D03*
D14*
X172498000Y-86365000D03*
X175038000Y-86365000D03*
D18*
X175998000Y-166615000D03*
X173498000Y-166615000D03*
X159248000Y-165865000D03*
X156748000Y-165865000D03*
X154248000Y-165865000D03*
X112198000Y-116365000D03*
X112198000Y-113865000D03*
X112198000Y-111365000D03*
X112198000Y-108865000D03*
D17*
X177578000Y-90115000D03*
D14*
X175038000Y-90115000D03*
X172498000Y-90115000D03*
X169958000Y-90115000D03*
D15*
X144488000Y-84725000D03*
X141948000Y-84725000D03*
X139408000Y-84725000D03*
X139408000Y-102505000D03*
X141948000Y-102505000D03*
X144488000Y-102505000D03*
X114008000Y-102505000D03*
X116548000Y-102505000D03*
X119088000Y-102505000D03*
X119088000Y-84725000D03*
X116548000Y-84725000D03*
X114008000Y-84725000D03*
D18*
X143248000Y-165865000D03*
X140748000Y-165865000D03*
X138248000Y-165865000D03*
X135748000Y-165865000D03*
D11*
X107668000Y-79655000D03*
D12*
X107668000Y-77115000D03*
X110208000Y-79655000D03*
X110208000Y-77115000D03*
X112748000Y-79655000D03*
X112748000Y-77115000D03*
X115288000Y-79655000D03*
X115288000Y-77115000D03*
X117828000Y-79655000D03*
X117828000Y-77115000D03*
D19*
X155998000Y-103905000D03*
X155998000Y-98825000D03*
M02*
