M48
;DRILL file {KiCad (2016-08-24 BZR 7090, Git 532a5fb)-product} date 10/24/16 18:33:45
;FORMAT={-:-/ absolute / metric / decimal}
FMAT,2
METRIC,TZ
T1C0.300
T2C0.400
T3C1.000
T4C1.016
T5C1.100
T6C1.800
T7C3.251
T8C3.500
%
G90
G05
M71
T1
X151.Y-104.2
X151.8Y-104.2
X154.5Y-118.25
X154.91Y-110.99
X155.75Y-104.5
X157.Y-112.
X158.4Y-112.2
X158.661Y-117.139
X159.Y-120.
X159.Y-121.8
X161.4Y-119.2
X163.38Y-111.59
X164.9Y-102.5
X164.94Y-105.38
X164.94Y-106.95
X164.95Y-103.78
X166.59Y-119.72
X166.6Y-102.4
X166.61Y-117.84
X166.99Y-113.82
X167.011Y-114.72
X167.665Y-111.664
X169.69Y-119.36
X170.16Y-111.5
X170.5Y-107.61
X170.61Y-119.39
X171.2Y-101.45
X171.573Y-119.346
X172.518Y-119.313
X172.8Y-101.45
X173.35Y-118.914
X174.4Y-101.45
X174.79Y-119.24
X176.Y-101.45
X176.2Y-115.
X176.2Y-116.
X176.35Y-110.5
X176.35Y-112.5
X177.6Y-101.45
X178.25Y-118.55
X179.2Y-101.45
X179.2Y-108.4
X179.489Y-115.421
X180.6Y-122.6
X182.15Y-104.55
X182.99Y-113.77
X183.Y-122.04
X183.017Y-107.257
X185.05Y-122.05
X187.35Y-115.55
T2
X144.5Y-124.3
X144.5Y-125.5
X151.Y-124.3
X151.Y-125.4
X155.Y-103.
X156.1Y-103.
X161.9Y-99.6
X163.3Y-99.6
T3
X146.801Y-108.101
X146.801Y-110.6
X146.801Y-113.099
X146.801Y-115.7
X149.351Y-109.3
X149.351Y-111.901
X149.351Y-114.4
X149.351Y-116.899
T4
X184.46Y-101.
X184.46Y-103.54
X184.46Y-106.08
X184.46Y-108.62
X184.46Y-111.16
X187.Y-101.
X187.Y-103.54
X187.Y-106.08
X187.Y-108.62
X187.Y-111.16
T5
X136.45Y-105.85
X136.45Y-108.4
X136.45Y-116.6
X136.45Y-119.15
T6
X143.45Y-104.85
X143.45Y-120.25
T7
X140.451Y-106.8
X140.499Y-118.2
T8
X139.5Y-100.5
X139.5Y-124.5
T0
M30
