G04 #@! TF.FileFunction,Copper,L1,Top,Signal*
%FSLAX46Y46*%
G04 Gerber Fmt 4.6, Leading zero omitted, Abs format (unit mm)*
G04 Created by KiCad (PCBNEW (2016-08-24 BZR 7090, Git 532a5fb)-product) date 10/24/16 18:53:44*
%MOMM*%
%LPD*%
G01*
G04 APERTURE LIST*
%ADD10C,0.100000*%
%ADD11R,1.727200X1.727200*%
%ADD12O,1.727200X1.727200*%
%ADD13C,1.000000*%
%ADD14O,1.727200X2.032000*%
%ADD15R,0.750000X1.200000*%
%ADD16R,2.000000X1.500000*%
%ADD17R,1.198880X1.198880*%
%ADD18R,1.200000X0.900000*%
%ADD19R,0.900000X1.200000*%
%ADD20R,1.500000X2.000000*%
%ADD21R,0.800100X0.800100*%
%ADD22R,2.100580X5.600700*%
%ADD23R,4.600000X1.100000*%
%ADD24R,9.400000X10.800000*%
%ADD25R,3.000000X1.600000*%
%ADD26R,6.200000X5.800000*%
%ADD27R,3.000000X5.400000*%
%ADD28C,1.700000*%
%ADD29C,1.600000*%
%ADD30R,1.727200X2.032000*%
%ADD31R,1.550000X1.300000*%
%ADD32C,2.000000*%
%ADD33R,3.299460X2.499360*%
%ADD34R,1.700000X0.900000*%
%ADD35R,4.000500X2.400300*%
%ADD36R,2.400300X4.000500*%
%ADD37R,3.599180X1.600200*%
%ADD38R,1.300000X0.700000*%
%ADD39R,1.600200X2.999740*%
%ADD40R,1.200000X0.750000*%
%ADD41R,1.200000X0.600000*%
%ADD42R,0.600000X1.200000*%
%ADD43R,0.700000X1.300000*%
%ADD44C,0.800000*%
%ADD45C,0.500000*%
%ADD46C,0.300000*%
%ADD47C,1.000000*%
%ADD48C,0.254000*%
G04 APERTURE END LIST*
D10*
D11*
X119818000Y-114390000D03*
D12*
X119818000Y-116930000D03*
X122358000Y-114390000D03*
X122358000Y-116930000D03*
X124898000Y-114390000D03*
X124898000Y-116930000D03*
X127438000Y-114390000D03*
X127438000Y-116930000D03*
X129978000Y-114390000D03*
X129978000Y-116930000D03*
D13*
X139748000Y-140115000D03*
X139748000Y-135615000D03*
X139748000Y-134115000D03*
X139748000Y-132615000D03*
X139748000Y-131115000D03*
X139748000Y-129615000D03*
X139748000Y-128115000D03*
X137748000Y-140115000D03*
X137748000Y-135615000D03*
X137748000Y-134115000D03*
X137748000Y-132615000D03*
X137748000Y-131115000D03*
X137748000Y-129615000D03*
X137748000Y-128115000D03*
X135748000Y-140115000D03*
X135748000Y-138615000D03*
X135748000Y-137115000D03*
X135748000Y-135615000D03*
X135748000Y-134115000D03*
X135748000Y-132615000D03*
X135748000Y-131115000D03*
X135748000Y-129615000D03*
X135748000Y-128115000D03*
X133748000Y-140115000D03*
X133748000Y-138615000D03*
X133748000Y-137115000D03*
X133748000Y-135615000D03*
X133748000Y-134115000D03*
X133748000Y-132615000D03*
X133748000Y-131115000D03*
X133748000Y-129615000D03*
X133748000Y-128115000D03*
X139748000Y-126615000D03*
X137748000Y-126615000D03*
X135748000Y-126615000D03*
X133748000Y-126615000D03*
X147748000Y-136865000D03*
X147748000Y-134865000D03*
X147748000Y-132865000D03*
X171498000Y-149615000D03*
X173498000Y-149615000D03*
X175498000Y-149615000D03*
X177498000Y-149615000D03*
X169498000Y-149615000D03*
X169498000Y-147615000D03*
X169498000Y-145615000D03*
X169498000Y-143615000D03*
X169498000Y-141615000D03*
X171498000Y-147615000D03*
X171498000Y-145615000D03*
X171498000Y-143615000D03*
X171498000Y-141615000D03*
X175498000Y-147615000D03*
X175498000Y-145615000D03*
X175498000Y-143615000D03*
X175498000Y-141615000D03*
X177498000Y-147615000D03*
X177498000Y-145615000D03*
X177498000Y-143615000D03*
X177498000Y-141615000D03*
X173498000Y-147615000D03*
X173498000Y-145615000D03*
X173498000Y-143615000D03*
X173498000Y-141615000D03*
D14*
X138938000Y-123825000D03*
X141478000Y-123825000D03*
X144018000Y-123825000D03*
X146558000Y-123825000D03*
X149098000Y-123825000D03*
X151638000Y-123825000D03*
X154178000Y-123825000D03*
X156718000Y-123825000D03*
X161798000Y-123825000D03*
X164338000Y-123825000D03*
X166878000Y-123825000D03*
X169418000Y-123825000D03*
X171958000Y-123825000D03*
X174498000Y-123825000D03*
X129794000Y-75565000D03*
X132334000Y-75565000D03*
X134874000Y-75565000D03*
X137414000Y-75565000D03*
X139954000Y-75565000D03*
X142494000Y-75565000D03*
X145034000Y-75565000D03*
X147574000Y-75565000D03*
X150114000Y-75565000D03*
X152654000Y-75565000D03*
X156718000Y-75565000D03*
X159258000Y-75565000D03*
X161798000Y-75565000D03*
X164338000Y-75565000D03*
X166878000Y-75565000D03*
X169418000Y-75565000D03*
X171958000Y-75565000D03*
X174498000Y-75565000D03*
D15*
X139798000Y-148615000D03*
X139798000Y-150515000D03*
D16*
X153548000Y-152315000D03*
X144048000Y-152315000D03*
X153548000Y-154815000D03*
X144048000Y-154815000D03*
X144098000Y-159965000D03*
X153598000Y-159965000D03*
X144098000Y-157465000D03*
X153598000Y-157465000D03*
D17*
X150748000Y-167315980D03*
X150748000Y-169414020D03*
X148748000Y-167315980D03*
X148748000Y-169414020D03*
D11*
X174498000Y-95885000D03*
D12*
X177038000Y-95885000D03*
X174498000Y-98425000D03*
X177038000Y-98425000D03*
X174498000Y-100965000D03*
X177038000Y-100965000D03*
D18*
X138498000Y-153165000D03*
X140698000Y-153165000D03*
D19*
X148748000Y-163265000D03*
X148748000Y-165465000D03*
X146748000Y-163265000D03*
X146748000Y-165465000D03*
D18*
X140698000Y-142165000D03*
X138498000Y-142165000D03*
D19*
X169998000Y-114015000D03*
X169998000Y-116215000D03*
X171748000Y-114015000D03*
X171748000Y-116215000D03*
X150748000Y-163265000D03*
X150748000Y-165465000D03*
X126498000Y-146765000D03*
X126498000Y-148965000D03*
D20*
X159898000Y-154015000D03*
X159898000Y-162215000D03*
X165098000Y-154015000D03*
X165098000Y-162215000D03*
D21*
X134797240Y-151415000D03*
X134797240Y-153315000D03*
X136796220Y-152365000D03*
D22*
X150498000Y-86516140D03*
X150498000Y-96213860D03*
D23*
X164248000Y-149165000D03*
X164248000Y-147465000D03*
X164248000Y-144065000D03*
D24*
X173398000Y-145765000D03*
D23*
X164248000Y-145765000D03*
X164248000Y-142365000D03*
D25*
X144898000Y-128565000D03*
D26*
X137698000Y-130665000D03*
D25*
X144898000Y-132765000D03*
D27*
X155598000Y-132765000D03*
X165598000Y-132765000D03*
D19*
X142198000Y-159965000D03*
X142198000Y-157765000D03*
D28*
X174498000Y-117945000D03*
X177038000Y-117945000D03*
X174498000Y-115405000D03*
X177038000Y-115405000D03*
X174498000Y-112865000D03*
X177038000Y-112865000D03*
X174498000Y-110325000D03*
X177038000Y-110325000D03*
D29*
X169748000Y-164615000D03*
X168281330Y-169615000D03*
D15*
X141398000Y-148615000D03*
X141398000Y-150515000D03*
D30*
X169958000Y-86365000D03*
D14*
X172498000Y-86365000D03*
X175038000Y-86365000D03*
D31*
X152973000Y-120615000D03*
X145023000Y-120615000D03*
X152973000Y-116115000D03*
X145023000Y-116115000D03*
D17*
X146748000Y-167315980D03*
X146748000Y-169414020D03*
X129998000Y-167315980D03*
X129998000Y-169414020D03*
X131998000Y-167315980D03*
X131998000Y-169414020D03*
D19*
X128498000Y-146765000D03*
X128498000Y-148965000D03*
D32*
X175998000Y-166615000D03*
X173498000Y-166615000D03*
X159248000Y-165865000D03*
X156748000Y-165865000D03*
X154248000Y-165865000D03*
X112198000Y-116365000D03*
X112198000Y-113865000D03*
X112198000Y-111365000D03*
X112198000Y-108865000D03*
D30*
X177578000Y-90115000D03*
D14*
X175038000Y-90115000D03*
X172498000Y-90115000D03*
X169958000Y-90115000D03*
D28*
X144488000Y-84725000D03*
X141948000Y-84725000D03*
X139408000Y-84725000D03*
X139408000Y-102505000D03*
X141948000Y-102505000D03*
X144488000Y-102505000D03*
X114008000Y-102505000D03*
X116548000Y-102505000D03*
X119088000Y-102505000D03*
X119088000Y-84725000D03*
X116548000Y-84725000D03*
X114008000Y-84725000D03*
D32*
X143248000Y-165865000D03*
X140748000Y-165865000D03*
X138248000Y-165865000D03*
X135748000Y-165865000D03*
D33*
X157998000Y-140563940D03*
X157998000Y-147366060D03*
D11*
X107668000Y-79655000D03*
D12*
X107668000Y-77115000D03*
X110208000Y-79655000D03*
X110208000Y-77115000D03*
X112748000Y-79655000D03*
X112748000Y-77115000D03*
X115288000Y-79655000D03*
X115288000Y-77115000D03*
X117828000Y-79655000D03*
X117828000Y-77115000D03*
D18*
X144698000Y-142165000D03*
X142498000Y-142165000D03*
D34*
X136598000Y-154915000D03*
X136598000Y-157815000D03*
D19*
X134398000Y-157465000D03*
X134398000Y-155265000D03*
X132798000Y-155265000D03*
X132798000Y-157465000D03*
D21*
X144948000Y-146964240D03*
X143048000Y-146964240D03*
X143998000Y-148963220D03*
X143044825Y-145765760D03*
X144944825Y-145765760D03*
X143994825Y-143766780D03*
X140548000Y-158164240D03*
X138648000Y-158164240D03*
X139598000Y-160163220D03*
X140548000Y-154864240D03*
X138648000Y-154864240D03*
X139598000Y-156863220D03*
D35*
X169247500Y-157615000D03*
X177248500Y-157615000D03*
D36*
X173398000Y-127864500D03*
X173398000Y-135865500D03*
D37*
X139135275Y-137565000D03*
X144636915Y-137565000D03*
D38*
X156748000Y-161915000D03*
X156748000Y-163815000D03*
D39*
X149798000Y-128565360D03*
X149798000Y-132964640D03*
D34*
X138398000Y-143914999D03*
X138398000Y-146814999D03*
X140906730Y-143914999D03*
X140906730Y-146814999D03*
D40*
X156198000Y-86365000D03*
X154298000Y-86365000D03*
X156198000Y-87865000D03*
X154298000Y-87865000D03*
X154298000Y-93615000D03*
X156198000Y-93615000D03*
X156198000Y-90865000D03*
X154298000Y-90865000D03*
D15*
X146998000Y-88415000D03*
X146998000Y-90315000D03*
X146998000Y-94065000D03*
X146998000Y-92165000D03*
D40*
X156198000Y-95115000D03*
X154298000Y-95115000D03*
D15*
X168748000Y-96665000D03*
X168748000Y-98565000D03*
D40*
X156198000Y-89365000D03*
X154298000Y-89365000D03*
D41*
X158498000Y-91065000D03*
X158498000Y-91865000D03*
X158498000Y-92665000D03*
X158498000Y-93465000D03*
X158498000Y-94265000D03*
X158498000Y-95065000D03*
X158498000Y-95865000D03*
X158498000Y-96665000D03*
D42*
X159948000Y-98115000D03*
X160748000Y-98115000D03*
X161548000Y-98115000D03*
X162348000Y-98115000D03*
X163148000Y-98115000D03*
X163948000Y-98115000D03*
X164748000Y-98115000D03*
X165548000Y-98115000D03*
D41*
X166998000Y-96665000D03*
X166998000Y-95865000D03*
X166998000Y-95065000D03*
X166998000Y-94265000D03*
X166998000Y-93465000D03*
X166998000Y-92665000D03*
X166998000Y-91865000D03*
X166998000Y-91065000D03*
D42*
X165548000Y-89615000D03*
X164748000Y-89615000D03*
X163948000Y-89615000D03*
X163148000Y-89615000D03*
X162348000Y-89615000D03*
X161548000Y-89615000D03*
X160748000Y-89615000D03*
X159948000Y-89615000D03*
D43*
X154298000Y-84615000D03*
X156198000Y-84615000D03*
D18*
X156348000Y-96865000D03*
X154148000Y-96865000D03*
D44*
X148998000Y-116865000D03*
X133248000Y-81515000D03*
X146098000Y-142165000D03*
X141398000Y-151865000D03*
X139798000Y-151865000D03*
X132798000Y-153965000D03*
X146098000Y-154815000D03*
X146098000Y-157465000D03*
X152298000Y-169415000D03*
X145248000Y-169415000D03*
X128598000Y-169415000D03*
X133348000Y-169415000D03*
D13*
X107998000Y-118115000D03*
X111998000Y-118115000D03*
X125998000Y-128715010D03*
X141998000Y-82115000D03*
X135248000Y-81615000D03*
X133248000Y-143865000D03*
X127748000Y-143865000D03*
D44*
X158829497Y-104645286D03*
X158531863Y-112082915D03*
X159849747Y-104395620D03*
X160007556Y-111643188D03*
X167223000Y-144365000D03*
X167198000Y-147465000D03*
X131748000Y-100865000D03*
X132498000Y-100115000D03*
X144948000Y-83215010D03*
X146098000Y-78340000D03*
X106098000Y-75640000D03*
D13*
X164498000Y-140865000D03*
X164498000Y-139365000D03*
X165498000Y-155865000D03*
X166498000Y-156865000D03*
D44*
X170128082Y-96700397D03*
X172324051Y-94538949D03*
X148198000Y-91265000D03*
X152998000Y-93615000D03*
X165748000Y-99365000D03*
X159748000Y-88115000D03*
X152998000Y-95115000D03*
X152998000Y-86365000D03*
X152998000Y-87865000D03*
X152998000Y-89365000D03*
X152973000Y-90865000D03*
X168748000Y-99915000D03*
X144748000Y-86365000D03*
X138148000Y-78490000D03*
X108998000Y-74949000D03*
X160761133Y-103629750D03*
X130006897Y-128606103D03*
X129967643Y-131395317D03*
X160748000Y-109364990D03*
X133273000Y-163140000D03*
X141748000Y-161865000D03*
X129497960Y-158509669D03*
X161580614Y-104296057D03*
X129217633Y-130645337D03*
X129256887Y-127781742D03*
X161507950Y-108715005D03*
X141998000Y-162865000D03*
X172748000Y-120865021D03*
X172748000Y-118865000D03*
X127467663Y-128895337D03*
X127248000Y-126365000D03*
X160996244Y-111493187D03*
X176998000Y-108365000D03*
X178748000Y-110365000D03*
X156855822Y-108782408D03*
X128498000Y-126865000D03*
X128467663Y-129895337D03*
X136973000Y-162640000D03*
X138598000Y-162615000D03*
X166998000Y-104865000D03*
X166998000Y-108715010D03*
X172441582Y-95717154D03*
X170942648Y-96120322D03*
X166011390Y-105215225D03*
X165892668Y-108759668D03*
X138598000Y-161340000D03*
X140673000Y-161290000D03*
D45*
X115288000Y-77115000D02*
X117828000Y-77115000D01*
X112748000Y-77115000D02*
X115288000Y-77115000D01*
X110208000Y-77115000D02*
X112748000Y-77115000D01*
X107668000Y-77115000D02*
X110208000Y-77115000D01*
D46*
X148998000Y-116115000D02*
X152973000Y-116115000D01*
X145023000Y-116115000D02*
X148998000Y-116115000D01*
X148998000Y-116115000D02*
X148998000Y-116865000D01*
D45*
X137414000Y-75565000D02*
X137414000Y-77349000D01*
X137414000Y-77349000D02*
X133248000Y-81515000D01*
D46*
X151248000Y-123435000D02*
X151638000Y-123825000D01*
D47*
X164248000Y-145765000D02*
X173398000Y-145765000D01*
X164248000Y-149165000D02*
X159796940Y-149165000D01*
X159796940Y-149165000D02*
X157998000Y-147366060D01*
D46*
X144698000Y-142165000D02*
X146098000Y-142165000D01*
X141398000Y-150515000D02*
X141398000Y-151865000D01*
X139798000Y-150515000D02*
X139798000Y-151865000D01*
X132798000Y-155265000D02*
X132798000Y-153965000D01*
X144048000Y-154815000D02*
X146098000Y-154815000D01*
X144098000Y-157465000D02*
X146098000Y-157465000D01*
X148748000Y-169414020D02*
X150748000Y-169414020D01*
X146748000Y-169414020D02*
X148748000Y-169414020D01*
X150748000Y-169414020D02*
X152297020Y-169414020D01*
X152297020Y-169414020D02*
X152298000Y-169415000D01*
X146748000Y-169414020D02*
X145248980Y-169414020D01*
X145248980Y-169414020D02*
X145248000Y-169415000D01*
X129998000Y-169414020D02*
X128598980Y-169414020D01*
X128598980Y-169414020D02*
X128598000Y-169415000D01*
X131998000Y-169414020D02*
X133347020Y-169414020D01*
X133347020Y-169414020D02*
X133348000Y-169415000D01*
D45*
X135748000Y-154165000D02*
X135748000Y-148665000D01*
X135748000Y-148665000D02*
X135698000Y-148615000D01*
D47*
X135698000Y-148615000D02*
X139798000Y-148615000D01*
X133248000Y-146165000D02*
X135698000Y-148615000D01*
X133248000Y-143865000D02*
X133248000Y-146165000D01*
X127748000Y-132902010D02*
X127748000Y-143865000D01*
X171998000Y-82115000D02*
X153248000Y-82115000D01*
X153248000Y-82115000D02*
X141998000Y-82115000D01*
D45*
X153248000Y-84415000D02*
X153248000Y-82115000D01*
D47*
X175038000Y-86365000D02*
X175038000Y-84349000D01*
X175038000Y-84349000D02*
X172804000Y-82115000D01*
X172804000Y-82115000D02*
X171998000Y-82115000D01*
X177578000Y-90115000D02*
X177578000Y-88905000D01*
X177578000Y-88905000D02*
X175038000Y-86365000D01*
X178601601Y-93218601D02*
X177578000Y-92195000D01*
X177578000Y-92195000D02*
X177578000Y-90115000D01*
X178601601Y-108761399D02*
X178601601Y-95115000D01*
X178601601Y-95115000D02*
X178601601Y-93218601D01*
X177038000Y-110325000D02*
X178601601Y-108761399D01*
X126498000Y-130865000D02*
X125998000Y-130365000D01*
X125998000Y-130365000D02*
X124348010Y-128715010D01*
X125998000Y-128715010D02*
X125998000Y-130365000D01*
X127748000Y-132902010D02*
X126498000Y-131652010D01*
X126498000Y-131652010D02*
X126498000Y-130865000D01*
X124348010Y-128715010D02*
X123664552Y-128715010D01*
D45*
X118467348Y-128465010D02*
X123664552Y-128715010D01*
D47*
X108822981Y-107865000D02*
X108822981Y-108205804D01*
X108822981Y-108205804D02*
X108572980Y-108455805D01*
X108572980Y-108455805D02*
X108572980Y-118924195D01*
X108572980Y-118924195D02*
X118363795Y-128715010D01*
X118363795Y-128715010D02*
X123664552Y-128715010D01*
D45*
X108822981Y-107865000D02*
X108822981Y-118115000D01*
D47*
X128253207Y-106164979D02*
X110523002Y-106164979D01*
X110523002Y-106164979D02*
X108822981Y-107865000D01*
X133748000Y-100670186D02*
X128253207Y-106164979D01*
X133748000Y-83115000D02*
X133748000Y-100670186D01*
X135248000Y-81615000D02*
X133748000Y-83115000D01*
D45*
X108822981Y-118115000D02*
X108822981Y-118820643D01*
X107998000Y-118115000D02*
X108822981Y-118115000D01*
X112198000Y-116365000D02*
X112198000Y-117915000D01*
X112198000Y-117915000D02*
X111998000Y-118115000D01*
X154298000Y-84615000D02*
X153448000Y-84615000D01*
X153448000Y-84615000D02*
X153248000Y-84415000D01*
X175038000Y-86212600D02*
X175038000Y-86365000D01*
D46*
X138098001Y-153965001D02*
X136497999Y-153965001D01*
X136497999Y-153965001D02*
X136298000Y-154165000D01*
X138648000Y-154164190D02*
X138297190Y-154164190D01*
X138297190Y-154164190D02*
X138098001Y-153965001D01*
X134554482Y-154306998D02*
X134456002Y-154306998D01*
X134456002Y-154306998D02*
X134398000Y-154365000D01*
X134398000Y-154365000D02*
X134398000Y-155265000D01*
X134554482Y-154306998D02*
X134797240Y-154064240D01*
D45*
X135748000Y-154165000D02*
X134898000Y-154165000D01*
X136298000Y-154165000D02*
X135748000Y-154165000D01*
X141998000Y-82115000D02*
X141998000Y-84675000D01*
X141998000Y-84675000D02*
X141948000Y-84725000D01*
X108822981Y-118820643D02*
X118467348Y-128465010D01*
D46*
X170248000Y-112865000D02*
X171748000Y-112865000D01*
X171748000Y-112865000D02*
X172721998Y-112865000D01*
X171748000Y-114015000D02*
X171748000Y-112865000D01*
X173971998Y-111615000D02*
X175748000Y-111615000D01*
X175748000Y-111615000D02*
X177038000Y-110325000D01*
X172721998Y-112865000D02*
X173971998Y-111615000D01*
X169998000Y-113115000D02*
X170248000Y-112865000D01*
X169998000Y-114015000D02*
X169998000Y-113115000D01*
D45*
X141398000Y-148615000D02*
X139798000Y-148615000D01*
X142696220Y-148963220D02*
X142348000Y-148615000D01*
X142348000Y-148615000D02*
X141398000Y-148615000D01*
X143998000Y-148963220D02*
X142696220Y-148963220D01*
D46*
X134797240Y-153315000D02*
X134797240Y-154064240D01*
X134797240Y-154064240D02*
X134898000Y-154165000D01*
D45*
X136598000Y-154465000D02*
X136298000Y-154165000D01*
X136598000Y-154915000D02*
X136598000Y-154465000D01*
D46*
X142198000Y-157765000D02*
X142198000Y-156065000D01*
X142198000Y-156065000D02*
X142198000Y-154965000D01*
X150748000Y-163265000D02*
X150748000Y-161004998D01*
X150748000Y-161004998D02*
X145808002Y-156065000D01*
X145808002Y-156065000D02*
X142198000Y-156065000D01*
X142198000Y-154965000D02*
X141347189Y-154114189D01*
X141347189Y-154114189D02*
X138698001Y-154114189D01*
X138698001Y-154114189D02*
X138648000Y-154164190D01*
X138648000Y-154164190D02*
X138648000Y-154864240D01*
D47*
X164248000Y-144065000D02*
X161499060Y-144065000D01*
X161499060Y-144065000D02*
X157998000Y-140563940D01*
D46*
X164338000Y-123825000D02*
X164338000Y-117889052D01*
X164338000Y-117889052D02*
X158531863Y-112082915D01*
X159297999Y-96914999D02*
X159048000Y-96665000D01*
X159048000Y-96665000D02*
X158498000Y-96665000D01*
X158829497Y-104033503D02*
X159297999Y-103565001D01*
X159297999Y-103565001D02*
X159297999Y-96914999D01*
X158829497Y-104645286D02*
X158829497Y-104033503D01*
X157598000Y-112915000D02*
X157598000Y-111929383D01*
X161798000Y-122509000D02*
X161798000Y-117115000D01*
X161798000Y-117115000D02*
X157598000Y-112915000D01*
X159948000Y-104297367D02*
X159849747Y-104395620D01*
X159948000Y-98115000D02*
X159948000Y-104297367D01*
X161798000Y-122509000D02*
X161748000Y-122459000D01*
X159607557Y-111243189D02*
X160007556Y-111643188D01*
X158284194Y-111243189D02*
X159607557Y-111243189D01*
X157598000Y-111929383D02*
X158284194Y-111243189D01*
X161798000Y-123825000D02*
X161798000Y-122509000D01*
X166998000Y-91865000D02*
X170900400Y-91865000D01*
X170900400Y-91865000D02*
X172498000Y-90267400D01*
X172498000Y-90267400D02*
X172498000Y-90115000D01*
X175038000Y-90115000D02*
X175038000Y-89962600D01*
X175038000Y-89962600D02*
X173590408Y-88515008D01*
X173590408Y-88515008D02*
X169689289Y-88515008D01*
X169689289Y-88515008D02*
X168648000Y-89556297D01*
X168648000Y-90665000D02*
X168248000Y-91065000D01*
X168648000Y-89556297D02*
X168648000Y-90665000D01*
X168248000Y-91065000D02*
X166998000Y-91065000D01*
X159248000Y-165865000D02*
X159248000Y-167279213D01*
X159248000Y-167279213D02*
X158412213Y-168115000D01*
X158412213Y-168115000D02*
X153748000Y-168115000D01*
X153748000Y-168115000D02*
X152498000Y-166865000D01*
X152498000Y-166865000D02*
X152498000Y-162072120D01*
X152498000Y-162072120D02*
X151497990Y-161072110D01*
X151497990Y-161072110D02*
X151497990Y-153065010D01*
X151497990Y-153065010D02*
X152248000Y-152315000D01*
X152248000Y-152315000D02*
X153548000Y-152315000D01*
X142748000Y-152315000D02*
X141898000Y-153165000D01*
X141898000Y-153165000D02*
X140698000Y-153165000D01*
X144048000Y-152315000D02*
X142748000Y-152315000D01*
X151998000Y-160865000D02*
X151998000Y-156365000D01*
X154248000Y-163115000D02*
X151998000Y-160865000D01*
X154248000Y-165865000D02*
X154248000Y-163115000D01*
X153548000Y-154815000D02*
X153548000Y-156115000D01*
X153548000Y-156115000D02*
X153548000Y-157415000D01*
X151998000Y-156365000D02*
X152248000Y-156115000D01*
X152248000Y-156115000D02*
X153548000Y-156115000D01*
X153548000Y-157415000D02*
X153598000Y-157465000D01*
X156748000Y-161915000D02*
X156748000Y-161265000D01*
X156748000Y-161265000D02*
X155448000Y-159965000D01*
X155448000Y-159965000D02*
X154898000Y-159965000D01*
X154898000Y-159965000D02*
X153598000Y-159965000D01*
X150748000Y-165465000D02*
X150748000Y-167315980D01*
X148748000Y-165465000D02*
X148748000Y-167315980D01*
D47*
X156748000Y-125871000D02*
X156748000Y-126365000D01*
X173398000Y-127864500D02*
X171197850Y-127864500D01*
X171197850Y-127864500D02*
X169698350Y-126365000D01*
X169698350Y-126365000D02*
X156748000Y-126365000D01*
D45*
X167223000Y-144365000D02*
X167223000Y-134390000D01*
X167223000Y-134390000D02*
X165598000Y-132765000D01*
X164248000Y-147465000D02*
X167198000Y-147465000D01*
D47*
X156718000Y-123825000D02*
X156718000Y-125841000D01*
X156718000Y-125841000D02*
X156748000Y-125871000D01*
D46*
X131833990Y-99365000D02*
X131498000Y-99700990D01*
X131498000Y-99700990D02*
X131498000Y-100615000D01*
X131498000Y-100615000D02*
X131748000Y-100865000D01*
X131833990Y-77757390D02*
X131833990Y-99365000D01*
X129794000Y-75565000D02*
X129794000Y-75717400D01*
X129794000Y-75717400D02*
X131833990Y-77757390D01*
X132334000Y-75565000D02*
X132334000Y-99951000D01*
X132334000Y-99951000D02*
X132498000Y-100115000D01*
X144948000Y-83215010D02*
X144948000Y-84265000D01*
X144948000Y-84265000D02*
X144488000Y-84725000D01*
X147574000Y-75717400D02*
X146098000Y-77193400D01*
X146098000Y-77193400D02*
X146098000Y-78340000D01*
X147574000Y-75565000D02*
X147574000Y-75717400D01*
X106098000Y-75640000D02*
X107539010Y-74198990D01*
X107539010Y-74198990D02*
X155504390Y-74198990D01*
X155504390Y-74198990D02*
X156718000Y-75412600D01*
X156718000Y-75412600D02*
X156718000Y-75565000D01*
X171958000Y-75565000D02*
X171958000Y-76905000D01*
X171958000Y-76905000D02*
X168248010Y-80614990D01*
X168248010Y-80614990D02*
X141034888Y-80614990D01*
X141034888Y-80614990D02*
X137248000Y-84401878D01*
X137248000Y-84401878D02*
X137248000Y-101979240D01*
X137248000Y-101979240D02*
X127212240Y-112015000D01*
X127212240Y-112015000D02*
X124733000Y-112015000D01*
X124733000Y-112015000D02*
X122358000Y-114390000D01*
X174498000Y-75565000D02*
X174498000Y-75717400D01*
X174498000Y-75717400D02*
X169100400Y-81115000D01*
X169100400Y-81115000D02*
X141241998Y-81115000D01*
X141241998Y-81115000D02*
X137748000Y-84608998D01*
X137748000Y-84608998D02*
X137748000Y-102215000D01*
X137748000Y-102215000D02*
X127448000Y-112515000D01*
X127448000Y-112515000D02*
X126773000Y-112515000D01*
X126773000Y-112515000D02*
X124898000Y-114390000D01*
X177038000Y-98425000D02*
X175824399Y-97211399D01*
X172784389Y-101221491D02*
X167040890Y-106964990D01*
X167040890Y-106964990D02*
X167040882Y-106964982D01*
X126883010Y-118915010D02*
X125761599Y-117793599D01*
X175824399Y-97211399D02*
X173915471Y-97211399D01*
X173915471Y-97211399D02*
X172784389Y-98342481D01*
X172784389Y-98342481D02*
X172784389Y-101221491D01*
X167040882Y-106964982D02*
X142748028Y-106964982D01*
X142748028Y-106964982D02*
X130798000Y-118915010D01*
X130798000Y-118915010D02*
X126883010Y-118915010D01*
X125761599Y-117793599D02*
X124898000Y-116930000D01*
X174498000Y-98425000D02*
X173284399Y-99638601D01*
X131148000Y-119522280D02*
X122410280Y-119522280D01*
X173284399Y-99638601D02*
X173284399Y-101428601D01*
X173284399Y-101428601D02*
X167248000Y-107465000D01*
X167248000Y-107465000D02*
X147248000Y-107465000D01*
X147247992Y-107464992D02*
X143205288Y-107464992D01*
X147248000Y-107465000D02*
X147247992Y-107464992D01*
X143205288Y-107464992D02*
X131148000Y-119522280D01*
X122410280Y-119522280D02*
X119818000Y-116930000D01*
X174498000Y-95885000D02*
X173334400Y-95885000D01*
X173334400Y-95885000D02*
X172197990Y-97021410D01*
X172197990Y-97021410D02*
X172197990Y-101100770D01*
X128923000Y-118415000D02*
X128301599Y-117793599D01*
X172197990Y-101100770D02*
X166833788Y-106464972D01*
X166833788Y-106464972D02*
X142498028Y-106464972D01*
X142498028Y-106464972D02*
X130548000Y-118415000D01*
X130548000Y-118415000D02*
X128923000Y-118415000D01*
X128301599Y-117793599D02*
X127438000Y-116930000D01*
X118348000Y-116515000D02*
X119146601Y-115716399D01*
X119146601Y-115716399D02*
X121144399Y-115716399D01*
X121144399Y-115716399D02*
X121494401Y-116066401D01*
X121494401Y-116066401D02*
X122358000Y-116930000D01*
X118348000Y-117965000D02*
X118348000Y-116515000D01*
X120405290Y-120022290D02*
X118348000Y-117965000D01*
X146825676Y-107965000D02*
X143412400Y-107965000D01*
X143412400Y-107965000D02*
X131355110Y-120022290D01*
X131355110Y-120022290D02*
X120405290Y-120022290D01*
X174498000Y-100965000D02*
X167498000Y-107965000D01*
X167498000Y-107965000D02*
X146825676Y-107965000D01*
D47*
X160248000Y-160315000D02*
X166579370Y-160315000D01*
X166579370Y-160315000D02*
X169748000Y-163483630D01*
X169748000Y-163483630D02*
X169748000Y-164615000D01*
X159898000Y-160665000D02*
X160248000Y-160315000D01*
X159898000Y-162215000D02*
X159898000Y-160665000D01*
X169748000Y-164615000D02*
X175598000Y-164615000D01*
X175598000Y-164615000D02*
X175998000Y-165015000D01*
X175998000Y-165015000D02*
X175998000Y-166615000D01*
X168281330Y-169615000D02*
X170498000Y-169615000D01*
X170498000Y-169615000D02*
X173498000Y-166615000D01*
X165098000Y-162215000D02*
X165098000Y-166431670D01*
X165098000Y-166431670D02*
X168281330Y-169615000D01*
D46*
X166878000Y-123825000D02*
X166878000Y-122509000D01*
X166878000Y-122509000D02*
X169197999Y-120189001D01*
X169197999Y-120189001D02*
X169197999Y-113207881D01*
X169197999Y-113207881D02*
X170040890Y-112364990D01*
X172514888Y-112364990D02*
X174498000Y-110381878D01*
X170040890Y-112364990D02*
X172514888Y-112364990D01*
X174498000Y-110381878D02*
X174498000Y-110325000D01*
X166878000Y-123825000D02*
X166878000Y-123672600D01*
X171497989Y-120115011D02*
X169418000Y-122195000D01*
X169418000Y-122195000D02*
X169418000Y-123825000D01*
X174811111Y-120115011D02*
X171497989Y-120115011D01*
X177038000Y-117945000D02*
X176188001Y-118794999D01*
X176188001Y-118794999D02*
X176131123Y-118794999D01*
X176131123Y-118794999D02*
X174811111Y-120115011D01*
D47*
X166498000Y-156865000D02*
X165498000Y-155865000D01*
X164498000Y-140865000D02*
X164498000Y-142115000D01*
X164498000Y-142115000D02*
X164248000Y-142365000D01*
X164498000Y-139365000D02*
X164498000Y-140865000D01*
X165098000Y-154015000D02*
X165098000Y-155465000D01*
X165098000Y-155465000D02*
X165498000Y-155865000D01*
X169247500Y-157615000D02*
X167248000Y-157615000D01*
X167248000Y-157615000D02*
X166498000Y-156865000D01*
D46*
X157498000Y-96334998D02*
X157498000Y-96865000D01*
X157498000Y-96865000D02*
X157498000Y-104423791D01*
X156348000Y-96865000D02*
X157498000Y-96865000D01*
X166998000Y-103365000D02*
X170498000Y-99865000D01*
X170498000Y-99865000D02*
X170498000Y-97636000D01*
X166588810Y-103365000D02*
X166998000Y-103365000D01*
X158939209Y-105865000D02*
X164088810Y-105865000D01*
X164088810Y-105865000D02*
X166588810Y-103365000D01*
X157498000Y-104423791D02*
X158939209Y-105865000D01*
X157248000Y-95365000D02*
X157248000Y-96084998D01*
X157248000Y-96084998D02*
X157498000Y-96334998D01*
X156998000Y-95115000D02*
X157248000Y-95365000D01*
X157248000Y-94615000D02*
X157248000Y-94865000D01*
X157248000Y-94865000D02*
X156998000Y-95115000D01*
X158498000Y-94265000D02*
X157598000Y-94265000D01*
X157598000Y-94265000D02*
X157248000Y-94615000D01*
X156423000Y-95115000D02*
X156998000Y-95115000D01*
X156198000Y-95115000D02*
X156423000Y-95115000D01*
X170128082Y-96700397D02*
X170128082Y-97266082D01*
X170128082Y-97266082D02*
X170498000Y-97636000D01*
X170128082Y-96700397D02*
X168783397Y-96700397D01*
X168783397Y-96700397D02*
X168748000Y-96665000D01*
X176114399Y-91498601D02*
X173074051Y-94538949D01*
X173074051Y-94538949D02*
X172324051Y-94538949D01*
X176364399Y-91498601D02*
X176114399Y-91498601D01*
X173748000Y-85746297D02*
X173748000Y-86956297D01*
X173748000Y-86956297D02*
X176364399Y-89572696D01*
X176364399Y-89572696D02*
X176364399Y-91498601D01*
X159387999Y-87364999D02*
X161390881Y-87364999D01*
X161390881Y-87364999D02*
X164256891Y-84498989D01*
X164256891Y-84498989D02*
X172500692Y-84498989D01*
X172500692Y-84498989D02*
X173748000Y-85746297D01*
X157173000Y-90865000D02*
X157173000Y-89579998D01*
X157173000Y-89579998D02*
X159387999Y-87364999D01*
X166998000Y-96665000D02*
X168748000Y-96665000D01*
X156198000Y-84615000D02*
X156198000Y-86365000D01*
X156198000Y-87865000D02*
X156198000Y-86365000D01*
X156198000Y-89365000D02*
X156198000Y-87865000D01*
X156198000Y-90865000D02*
X156198000Y-89365000D01*
X157373000Y-91065000D02*
X157173000Y-90865000D01*
X157173000Y-90865000D02*
X156198000Y-90865000D01*
X158498000Y-91065000D02*
X157373000Y-91065000D01*
X146998000Y-91265000D02*
X146998000Y-92165000D01*
X146998000Y-90315000D02*
X146998000Y-91265000D01*
X146998000Y-91265000D02*
X148198000Y-91265000D01*
X154298000Y-93615000D02*
X152998000Y-93615000D01*
X165548000Y-98115000D02*
X165548000Y-99165000D01*
X165548000Y-99165000D02*
X165748000Y-99365000D01*
X159948000Y-89615000D02*
X159948000Y-88315000D01*
X159948000Y-88315000D02*
X159748000Y-88115000D01*
X159948000Y-89615000D02*
X159948000Y-88415000D01*
X154298000Y-95115000D02*
X152998000Y-95115000D01*
X154298000Y-86365000D02*
X152998000Y-86365000D01*
X154298000Y-87865000D02*
X152998000Y-87865000D01*
X154298000Y-89365000D02*
X152998000Y-89365000D01*
X154298000Y-90865000D02*
X152973000Y-90865000D01*
X168748000Y-98565000D02*
X168748000Y-99915000D01*
X146998000Y-88415000D02*
X146998000Y-87515000D01*
X146998000Y-87515000D02*
X147996860Y-86516140D01*
X147996860Y-86516140D02*
X149147710Y-86516140D01*
X149147710Y-86516140D02*
X150498000Y-86516140D01*
X158498000Y-91865000D02*
X152746510Y-91865000D01*
X152746510Y-91865000D02*
X150498000Y-89616490D01*
X150498000Y-89616490D02*
X150498000Y-86516140D01*
X146998000Y-94065000D02*
X146998000Y-94965000D01*
X146998000Y-94965000D02*
X148246860Y-96213860D01*
X148246860Y-96213860D02*
X149147710Y-96213860D01*
X149147710Y-96213860D02*
X150498000Y-96213860D01*
X158498000Y-92665000D02*
X152296800Y-92665000D01*
X152296800Y-92665000D02*
X150498000Y-94463800D01*
X150498000Y-94463800D02*
X150498000Y-96213860D01*
X138498000Y-153165000D02*
X136896170Y-153165000D01*
X136896170Y-153165000D02*
X136796220Y-153065050D01*
X136796220Y-153065050D02*
X136796220Y-152365000D01*
X156748000Y-165865000D02*
X156748000Y-163815000D01*
X169998000Y-116215000D02*
X169998000Y-117225002D01*
X169998000Y-117225002D02*
X172387999Y-119615001D01*
X172387999Y-119615001D02*
X174604001Y-119615001D01*
X174604001Y-119615001D02*
X175837999Y-118381003D01*
X175837999Y-118381003D02*
X175837999Y-116605001D01*
X175837999Y-116605001D02*
X176188001Y-116254999D01*
X176188001Y-116254999D02*
X177038000Y-115405000D01*
X155248000Y-93665000D02*
X155248000Y-96865000D01*
X155248000Y-96865000D02*
X155248000Y-97765000D01*
X154148000Y-96865000D02*
X155248000Y-96865000D01*
X155248000Y-97765000D02*
X152748000Y-100265000D01*
X144748000Y-86365000D02*
X144748000Y-97365000D01*
X144748000Y-97365000D02*
X147648000Y-100265000D01*
X138148000Y-77523400D02*
X138148000Y-78490000D01*
X147648000Y-100265000D02*
X152748000Y-100265000D01*
X139954000Y-75717400D02*
X138148000Y-77523400D01*
X139954000Y-75565000D02*
X139954000Y-75717400D01*
X155298000Y-93615000D02*
X156198000Y-93615000D01*
X155248000Y-93665000D02*
X155298000Y-93615000D01*
X157398000Y-93465000D02*
X157248000Y-93615000D01*
X157248000Y-93615000D02*
X156198000Y-93615000D01*
X158498000Y-93465000D02*
X157398000Y-93465000D01*
X156720683Y-73698980D02*
X157544380Y-73698980D01*
X157544380Y-73698980D02*
X159258000Y-75412600D01*
X159258000Y-75412600D02*
X159258000Y-75565000D01*
X106280529Y-76532471D02*
X107864000Y-74949000D01*
X107864000Y-74949000D02*
X108998000Y-74949000D01*
X154395500Y-73698980D02*
X106929018Y-73698980D01*
X106929018Y-73698980D02*
X105347999Y-75279999D01*
X105347999Y-75279999D02*
X105347999Y-76000001D01*
X105347999Y-76000001D02*
X105880469Y-76532471D01*
X105880469Y-76532471D02*
X106280529Y-76532471D01*
X159258000Y-75565000D02*
X158586703Y-75565000D01*
X156720683Y-73698980D02*
X154395500Y-73698980D01*
X145023000Y-120615000D02*
X145023000Y-122820000D01*
X145023000Y-122820000D02*
X144018000Y-123825000D01*
X152973000Y-120615000D02*
X145023000Y-120615000D01*
X144388000Y-123825000D02*
X144018000Y-123825000D01*
X129967643Y-131395317D02*
X130247960Y-131675634D01*
X132447999Y-163965001D02*
X133273000Y-163140000D01*
X130247960Y-131675634D02*
X130247960Y-159515040D01*
X130247960Y-159515040D02*
X129572960Y-159515040D01*
X129572960Y-159515040D02*
X128397999Y-160690001D01*
X128397999Y-163164999D02*
X129198001Y-163965001D01*
X128397999Y-160690001D02*
X128397999Y-163164999D01*
X129198001Y-163965001D02*
X132447999Y-163965001D01*
X160748000Y-103616617D02*
X160761133Y-103629750D01*
X160748000Y-98115000D02*
X160748000Y-103616617D01*
X158041033Y-109364990D02*
X157291023Y-110115000D01*
X147129608Y-109782428D02*
X156038720Y-109782428D01*
X156038720Y-109782428D02*
X156371292Y-110115000D01*
X156371292Y-110115000D02*
X157291023Y-110115000D01*
X136333770Y-120364990D02*
X136547046Y-120364990D01*
X136547046Y-120364990D02*
X147129608Y-109782428D01*
X130006897Y-128606103D02*
X130006897Y-126691863D01*
X130006897Y-126691863D02*
X136333770Y-120364990D01*
X160748000Y-109364990D02*
X158041033Y-109364990D01*
X143005110Y-161540010D02*
X142072990Y-161540010D01*
X142072990Y-161540010D02*
X141748000Y-161865000D01*
X148748000Y-162115000D02*
X148173010Y-161540010D01*
X148173010Y-161540010D02*
X143005110Y-161540010D01*
X148748000Y-163265000D02*
X148748000Y-162115000D01*
X129747950Y-133115000D02*
X129747950Y-158259679D01*
X129747950Y-158259679D02*
X129497960Y-158509669D01*
X161548000Y-104263443D02*
X161580614Y-104296057D01*
X161548000Y-98115000D02*
X161548000Y-104263443D01*
X129256887Y-127781742D02*
X129256887Y-126734753D01*
X136126660Y-119864980D02*
X136339936Y-119864980D01*
X129256887Y-126734753D02*
X136126660Y-119864980D01*
X146922498Y-109282418D02*
X156245830Y-109282418D01*
X136339936Y-119864980D02*
X146922498Y-109282418D01*
X156245830Y-109282418D02*
X156495821Y-109532409D01*
X156495821Y-109532409D02*
X157166494Y-109532409D01*
X157166494Y-109532409D02*
X158083914Y-108614989D01*
X158083914Y-108614989D02*
X161407934Y-108614989D01*
X161407934Y-108614989D02*
X161507950Y-108715005D01*
X129747950Y-133115000D02*
X129747950Y-132365000D01*
X129217633Y-130645337D02*
X129217633Y-131755309D01*
X129217633Y-131755309D02*
X129747950Y-132285626D01*
X129747950Y-132285626D02*
X129747950Y-132365000D01*
X146423020Y-162040020D02*
X142822980Y-162040020D01*
X142822980Y-162040020D02*
X141998000Y-162865000D01*
X146748000Y-162365000D02*
X146423020Y-162040020D01*
X146748000Y-163265000D02*
X146748000Y-162365000D01*
X146748000Y-165465000D02*
X146748000Y-167315980D01*
X129998000Y-167315980D02*
X129998000Y-166416540D01*
X126498000Y-149615000D02*
X126498000Y-148965000D01*
X129998000Y-166416540D02*
X127322990Y-163741530D01*
X127322990Y-160290010D02*
X127948000Y-159665000D01*
X127322990Y-163741530D02*
X127322990Y-160290010D01*
X127948000Y-159665000D02*
X127948000Y-151065000D01*
X127948000Y-151065000D02*
X126498000Y-149615000D01*
X130573000Y-164515000D02*
X131998000Y-165940000D01*
X131998000Y-165940000D02*
X131998000Y-167315980D01*
X128948000Y-164515000D02*
X130573000Y-164515000D01*
X127823000Y-163390000D02*
X128948000Y-164515000D01*
X127823000Y-160515000D02*
X127823000Y-163390000D01*
X128498000Y-159840000D02*
X127823000Y-160515000D01*
X128498000Y-148965000D02*
X128498000Y-159840000D01*
X171958000Y-123825000D02*
X171958000Y-121655021D01*
X171958000Y-121655021D02*
X172748000Y-120865021D01*
X172748000Y-115378998D02*
X172748000Y-116115000D01*
X172748000Y-116115000D02*
X172748000Y-118299315D01*
X171748000Y-116215000D02*
X172648000Y-116215000D01*
X172648000Y-116215000D02*
X172748000Y-116115000D01*
X177038000Y-112865000D02*
X175788000Y-114115000D01*
X175788000Y-114115000D02*
X174011998Y-114115000D01*
X174011998Y-114115000D02*
X172748000Y-115378998D01*
X172748000Y-118299315D02*
X172748000Y-118865000D01*
X171958000Y-123672600D02*
X171958000Y-123825000D01*
X126498000Y-146765000D02*
X126498000Y-145865000D01*
X126498000Y-145865000D02*
X127398000Y-144965000D01*
X127398000Y-144965000D02*
X128148000Y-144965000D01*
X128148000Y-144965000D02*
X128747930Y-144365070D01*
X128747930Y-144365070D02*
X128747930Y-132699846D01*
X128747930Y-132699846D02*
X127467663Y-131419579D01*
X127467663Y-131419579D02*
X127467663Y-128895337D01*
X169418000Y-75565000D02*
X169418000Y-77695000D01*
X126448040Y-125565040D02*
X127248000Y-126365000D01*
X120240920Y-125565040D02*
X126448040Y-125565040D01*
X116347990Y-121672110D02*
X120240920Y-125565040D01*
X116347990Y-115115000D02*
X116347990Y-121672110D01*
X119997982Y-111465008D02*
X116347990Y-115115000D01*
X127055112Y-111465008D02*
X119997982Y-111465008D01*
X136747990Y-101772130D02*
X127055112Y-111465008D01*
X136747990Y-84194768D02*
X136747990Y-101772130D01*
X140827778Y-80114980D02*
X136747990Y-84194768D01*
X169418000Y-77695000D02*
X166998020Y-80114980D01*
X166998020Y-80114980D02*
X140827778Y-80114980D01*
X129247940Y-132492736D02*
X129247940Y-145115060D01*
X129247940Y-145115060D02*
X128498000Y-145865000D01*
X128498000Y-145865000D02*
X128498000Y-146765000D01*
X165176939Y-111243191D02*
X161246240Y-111243191D01*
X161246240Y-111243191D02*
X160996244Y-111493187D01*
X176998000Y-108365000D02*
X168458012Y-108365000D01*
X168458012Y-108365000D02*
X165579821Y-111243191D01*
X165579821Y-111243191D02*
X165176939Y-111243191D01*
X178998000Y-119172600D02*
X178998000Y-110615000D01*
X178998000Y-110615000D02*
X178748000Y-110365000D01*
X174498000Y-123825000D02*
X174498000Y-123672600D01*
X174498000Y-123672600D02*
X178998000Y-119172600D01*
X135919550Y-119364970D02*
X136132826Y-119364970D01*
X136132826Y-119364970D02*
X146715388Y-108782408D01*
X128498000Y-126865000D02*
X128756877Y-126606123D01*
X128756877Y-126606123D02*
X128756877Y-126527643D01*
X128756877Y-126527643D02*
X135919550Y-119364970D01*
X146715388Y-108782408D02*
X156855822Y-108782408D01*
X128467632Y-129895368D02*
X128467663Y-129895337D01*
X129247940Y-132492736D02*
X128467632Y-131712428D01*
X128467632Y-131712428D02*
X128467632Y-129895368D01*
X142494000Y-75565000D02*
X142494000Y-75620278D01*
X142494000Y-75620278D02*
X134747950Y-83366328D01*
X118715880Y-127865000D02*
X127498000Y-127865000D01*
X134747950Y-83366328D02*
X134747950Y-100872330D01*
X127498000Y-127865000D02*
X130747970Y-131114970D01*
X134747950Y-100872330D02*
X128605291Y-107014989D01*
X111215891Y-107014989D02*
X109422990Y-108807890D01*
X136973000Y-162074315D02*
X136973000Y-162640000D01*
X128605291Y-107014989D02*
X111215891Y-107014989D01*
X131953778Y-159715020D02*
X134613705Y-159715020D01*
X109422990Y-108807890D02*
X109422990Y-118572110D01*
X109422990Y-118572110D02*
X118715880Y-127865000D01*
X130747970Y-131114970D02*
X130747970Y-158509212D01*
X130747970Y-158509212D02*
X131953778Y-159715020D01*
X134613705Y-159715020D02*
X136973000Y-162074315D01*
X140748000Y-165865000D02*
X138598000Y-163715000D01*
X138598000Y-163715000D02*
X138598000Y-162615000D01*
X145034000Y-75565000D02*
X145034000Y-75717400D01*
X109923000Y-118365000D02*
X118923000Y-127365000D01*
X109923000Y-109015000D02*
X109923000Y-118365000D01*
X145034000Y-75717400D02*
X142136450Y-78614950D01*
X111423001Y-107514999D02*
X109923000Y-109015000D01*
X128812401Y-107514999D02*
X111423001Y-107514999D01*
X142136450Y-78614950D02*
X140206448Y-78614950D01*
X140206448Y-78614950D02*
X135247960Y-83573438D01*
X135247960Y-101079440D02*
X128812401Y-107514999D01*
X131247980Y-130865000D02*
X131247980Y-158302102D01*
X135247960Y-83573438D02*
X135247960Y-101079440D01*
X118923000Y-127365000D02*
X127705120Y-127365000D01*
X131205120Y-130865000D02*
X131247980Y-130865000D01*
X127705120Y-127365000D02*
X131205120Y-130865000D01*
X132160888Y-159215010D02*
X135765890Y-159215010D01*
X131247980Y-158302102D02*
X132160888Y-159215010D01*
X135765890Y-159215010D02*
X137773000Y-161222120D01*
X137773000Y-161222120D02*
X137773000Y-163975787D01*
X137773000Y-163975787D02*
X138248000Y-164450787D01*
X138248000Y-164450787D02*
X138248000Y-165865000D01*
X152654000Y-75565000D02*
X152654000Y-75717400D01*
X152654000Y-75717400D02*
X148756430Y-79614970D01*
X148756430Y-79614970D02*
X140620668Y-79614970D01*
X140620668Y-79614970D02*
X136247980Y-83987658D01*
X136247980Y-83987658D02*
X136247980Y-101565020D01*
X136247980Y-101565020D02*
X126848000Y-110965000D01*
X126848000Y-110965000D02*
X115098000Y-110965000D01*
X115098000Y-110965000D02*
X112198000Y-113865000D01*
X112198000Y-111365000D02*
X113197999Y-110365001D01*
X113197999Y-110365001D02*
X126669519Y-110365001D01*
X126669519Y-110365001D02*
X135747970Y-101286550D01*
X135747970Y-83780548D02*
X140413558Y-79114960D01*
X135747970Y-101286550D02*
X135747970Y-83780548D01*
X140413558Y-79114960D02*
X146716440Y-79114960D01*
X146716440Y-79114960D02*
X150114000Y-75717400D01*
X150114000Y-75717400D02*
X150114000Y-75565000D01*
X143044825Y-145765760D02*
X143044825Y-146961065D01*
X143044825Y-146961065D02*
X143048000Y-146964240D01*
D45*
X142398000Y-146956269D02*
X143040029Y-146956269D01*
X143040029Y-146956269D02*
X143048000Y-146964240D01*
X140906730Y-146814999D02*
X142256730Y-146814999D01*
X142256730Y-146814999D02*
X142398000Y-146956269D01*
X138398000Y-146814999D02*
X140906730Y-146814999D01*
D46*
X144998000Y-142965000D02*
X143998000Y-142965000D01*
X143998000Y-142965000D02*
X141798000Y-142965000D01*
X143994825Y-143766780D02*
X143994825Y-143066730D01*
X143994825Y-143066730D02*
X143998000Y-143063555D01*
X143998000Y-143063555D02*
X143998000Y-142965000D01*
X140698000Y-142165000D02*
X141598000Y-142165000D01*
X141598000Y-142165000D02*
X142498000Y-142165000D01*
X141798000Y-142965000D02*
X141598000Y-142765000D01*
X141598000Y-142765000D02*
X141598000Y-142165000D01*
X145898000Y-143865000D02*
X144998000Y-142965000D01*
X145898000Y-146714290D02*
X145898000Y-143865000D01*
X144948000Y-146964240D02*
X145648050Y-146964240D01*
X145648050Y-146964240D02*
X145898000Y-146714290D01*
X138198000Y-159165000D02*
X137947240Y-158914240D01*
X137947240Y-158914240D02*
X137947240Y-158164240D01*
X141098000Y-159165000D02*
X138198000Y-159165000D01*
X141298051Y-158964949D02*
X141098000Y-159165000D01*
X141298000Y-156314290D02*
X141298000Y-157484138D01*
X141298000Y-157484138D02*
X141298051Y-157484189D01*
X141298051Y-157484189D02*
X141298051Y-158964949D01*
X140548000Y-154864240D02*
X140548000Y-155564290D01*
X140548000Y-155564290D02*
X141298000Y-156314290D01*
D45*
X137598000Y-157815000D02*
X137947240Y-158164240D01*
X137947240Y-158164240D02*
X138097240Y-158164240D01*
X136598000Y-157815000D02*
X137598000Y-157815000D01*
X138648000Y-158164240D02*
X138097240Y-158164240D01*
D46*
X140198000Y-156065000D02*
X139598000Y-156065000D01*
X139598000Y-156065000D02*
X135598000Y-156065000D01*
X139598000Y-156863220D02*
X139598000Y-156065000D01*
X135198000Y-156465000D02*
X134398000Y-156465000D01*
X134398000Y-156465000D02*
X132898000Y-156465000D01*
X134398000Y-157465000D02*
X134398000Y-156565000D01*
X134398000Y-156565000D02*
X134398000Y-156465000D01*
X140548000Y-158164240D02*
X140548000Y-156415000D01*
X140548000Y-156415000D02*
X140198000Y-156065000D01*
X135598000Y-156065000D02*
X135198000Y-156465000D01*
X132798000Y-156565000D02*
X132798000Y-157465000D01*
X132898000Y-156465000D02*
X132798000Y-156565000D01*
D45*
X139598000Y-160163220D02*
X139598000Y-162215000D01*
X139598000Y-162215000D02*
X143248000Y-165865000D01*
X138398000Y-143914999D02*
X136147999Y-143914999D01*
X136147999Y-143914999D02*
X135498000Y-143265000D01*
X135498000Y-143265000D02*
X135498000Y-142364999D01*
X135498000Y-142364999D02*
X135498000Y-142065000D01*
X135498000Y-142065000D02*
X135498000Y-138065000D01*
D46*
X138498000Y-142165000D02*
X135598000Y-142165000D01*
X135598000Y-142165000D02*
X135498000Y-142065000D01*
D45*
X135498000Y-138065000D02*
X135998000Y-137565000D01*
X135998000Y-137565000D02*
X139135275Y-137565000D01*
X144944825Y-145211825D02*
X144598000Y-144865000D01*
X144598000Y-144865000D02*
X143206731Y-144865000D01*
X144944825Y-145765760D02*
X144944825Y-145211825D01*
X140906730Y-143914999D02*
X142256730Y-143914999D01*
X142256730Y-143914999D02*
X143206731Y-144865000D01*
X138398000Y-143914999D02*
X140906730Y-143914999D01*
D46*
X157705263Y-111115000D02*
X157748000Y-111072263D01*
X147580552Y-110782448D02*
X155624500Y-110782448D01*
X155624500Y-110782448D02*
X155957205Y-111115153D01*
X155957205Y-111115153D02*
X157705110Y-111115153D01*
X157705110Y-111115153D02*
X157705263Y-111115000D01*
X136998000Y-121365000D02*
X147580552Y-110782448D01*
X136748000Y-121365000D02*
X136998000Y-121365000D01*
X134797240Y-151415000D02*
X133748000Y-151415000D01*
X132248000Y-125865000D02*
X132248000Y-149915000D01*
X132248000Y-149915000D02*
X133748000Y-151415000D01*
X136748000Y-121365000D02*
X132248000Y-125865000D01*
X171697980Y-95814980D02*
X170948000Y-95065000D01*
X170948000Y-95065000D02*
X166998000Y-95065000D01*
X171697980Y-100165020D02*
X171697980Y-95814980D01*
X166998000Y-104865000D02*
X171697980Y-100165020D01*
X158369819Y-110743181D02*
X164969829Y-110743181D01*
X164969829Y-110743181D02*
X166998000Y-108715010D01*
X157748000Y-111072263D02*
X158077082Y-110743181D01*
X158077082Y-110743181D02*
X158369819Y-110743181D01*
X170048000Y-92665000D02*
X170989428Y-93606428D01*
X170989428Y-93606428D02*
X170989428Y-94265000D01*
X166998000Y-92665000D02*
X170048000Y-92665000D01*
X157498000Y-110615143D02*
X157998143Y-110115000D01*
X147336718Y-110282438D02*
X155831610Y-110282438D01*
X155831610Y-110282438D02*
X156164315Y-110615143D01*
X156164315Y-110615143D02*
X157498000Y-110615143D01*
X136540880Y-120865000D02*
X136754156Y-120865000D01*
X136754156Y-120865000D02*
X147336718Y-110282438D01*
X138598000Y-161340000D02*
X135973000Y-158715000D01*
X135973000Y-158715000D02*
X132367998Y-158715000D01*
X132367998Y-158715000D02*
X131747990Y-158094992D01*
X131747990Y-158094992D02*
X131747990Y-125657890D01*
X131747990Y-125657890D02*
X136540880Y-120865000D01*
X157998143Y-110115000D02*
X164537336Y-110115000D01*
X164537336Y-110115000D02*
X165892668Y-108759668D01*
X172441582Y-95717154D02*
X170989428Y-94265000D01*
X170989428Y-94265000D02*
X166998000Y-94265000D01*
X171197970Y-99957910D02*
X171197970Y-96375644D01*
X171197970Y-96375644D02*
X170942648Y-96120322D01*
X167290880Y-103865000D02*
X171197970Y-99957910D01*
X166011390Y-105215225D02*
X166011390Y-104649540D01*
X166011390Y-104649540D02*
X166795930Y-103865000D01*
X166795930Y-103865000D02*
X167290880Y-103865000D01*
X142798000Y-161040000D02*
X140923000Y-161040000D01*
X140923000Y-161040000D02*
X140673000Y-161290000D01*
X142923000Y-160915000D02*
X142798000Y-161040000D01*
X142923000Y-159965000D02*
X144098000Y-159965000D01*
X142198000Y-159965000D02*
X142923000Y-159965000D01*
X142923000Y-159965000D02*
X142923000Y-160915000D01*
X160748000Y-89615000D02*
X160748000Y-88715000D01*
X160748000Y-88715000D02*
X164464001Y-84998999D01*
X164464001Y-84998999D02*
X171284399Y-84998999D01*
X171284399Y-84998999D02*
X172498000Y-86212600D01*
X172498000Y-86212600D02*
X172498000Y-86365000D01*
D48*
G36*
X141621000Y-140738000D02*
X133125000Y-140738000D01*
X133125000Y-126098158D01*
X133231158Y-125992000D01*
X141621000Y-125992000D01*
X141621000Y-140738000D01*
X141621000Y-140738000D01*
G37*
X141621000Y-140738000D02*
X133125000Y-140738000D01*
X133125000Y-126098158D01*
X133231158Y-125992000D01*
X141621000Y-125992000D01*
X141621000Y-140738000D01*
G36*
X178871000Y-162738000D02*
X172625000Y-162738000D01*
X172625000Y-155365000D01*
X172615333Y-155316399D01*
X172587803Y-155275197D01*
X172546601Y-155247667D01*
X172498000Y-155238000D01*
X168625000Y-155238000D01*
X168625000Y-130992000D01*
X178871000Y-130992000D01*
X178871000Y-162738000D01*
X178871000Y-162738000D01*
G37*
X178871000Y-162738000D02*
X172625000Y-162738000D01*
X172625000Y-155365000D01*
X172615333Y-155316399D01*
X172587803Y-155275197D01*
X172546601Y-155247667D01*
X172498000Y-155238000D01*
X168625000Y-155238000D01*
X168625000Y-130992000D01*
X178871000Y-130992000D01*
X178871000Y-162738000D01*
G36*
X174371000Y-129738000D02*
X166998000Y-129738000D01*
X166949399Y-129747667D01*
X166908197Y-129775197D01*
X166880667Y-129816399D01*
X166871000Y-129865000D01*
X166871000Y-135238000D01*
X164125000Y-135238000D01*
X164125000Y-129865000D01*
X164115333Y-129816399D01*
X164097170Y-129785664D01*
X162097170Y-127285664D01*
X162059261Y-127253752D01*
X161998000Y-127238000D01*
X154998000Y-127238000D01*
X154949399Y-127247667D01*
X154898830Y-127285664D01*
X152936961Y-129738000D01*
X143625000Y-129738000D01*
X143625000Y-125992000D01*
X174371000Y-125992000D01*
X174371000Y-129738000D01*
X174371000Y-129738000D01*
G37*
X174371000Y-129738000D02*
X166998000Y-129738000D01*
X166949399Y-129747667D01*
X166908197Y-129775197D01*
X166880667Y-129816399D01*
X166871000Y-129865000D01*
X166871000Y-135238000D01*
X164125000Y-135238000D01*
X164125000Y-129865000D01*
X164115333Y-129816399D01*
X164097170Y-129785664D01*
X162097170Y-127285664D01*
X162059261Y-127253752D01*
X161998000Y-127238000D01*
X154998000Y-127238000D01*
X154949399Y-127247667D01*
X154898830Y-127285664D01*
X152936961Y-129738000D01*
X143625000Y-129738000D01*
X143625000Y-125992000D01*
X174371000Y-125992000D01*
X174371000Y-129738000D01*
G36*
X156871000Y-138865000D02*
X156880667Y-138913601D01*
X156908197Y-138954803D01*
X156949399Y-138982333D01*
X156998000Y-138992000D01*
X161371000Y-138992000D01*
X161371000Y-141535572D01*
X161349843Y-141567235D01*
X161300560Y-141815000D01*
X161300560Y-142915000D01*
X161349843Y-143162765D01*
X161371000Y-143194428D01*
X161371000Y-144488000D01*
X154625000Y-144488000D01*
X154625000Y-130492000D01*
X156871000Y-130492000D01*
X156871000Y-138865000D01*
X156871000Y-138865000D01*
G37*
X156871000Y-138865000D02*
X156880667Y-138913601D01*
X156908197Y-138954803D01*
X156949399Y-138982333D01*
X156998000Y-138992000D01*
X161371000Y-138992000D01*
X161371000Y-141535572D01*
X161349843Y-141567235D01*
X161300560Y-141815000D01*
X161300560Y-142915000D01*
X161349843Y-143162765D01*
X161371000Y-143194428D01*
X161371000Y-144488000D01*
X154625000Y-144488000D01*
X154625000Y-130492000D01*
X156871000Y-130492000D01*
X156871000Y-138865000D01*
G36*
X161948000Y-145254283D02*
X166548000Y-145254283D01*
X166609751Y-145242000D01*
X166657012Y-145242000D01*
X167017821Y-145391821D01*
X167426387Y-145392178D01*
X167789845Y-145242000D01*
X173371000Y-145242000D01*
X173371000Y-146238000D01*
X161498000Y-146238000D01*
X161449399Y-146247667D01*
X161408197Y-146275197D01*
X161380667Y-146316399D01*
X161371000Y-146365000D01*
X161371000Y-146649973D01*
X161357380Y-146670357D01*
X161308717Y-146915000D01*
X161308717Y-148015000D01*
X161357380Y-148259643D01*
X161371000Y-148280027D01*
X161371000Y-154738000D01*
X159050606Y-154738000D01*
X154625000Y-150312394D01*
X154625000Y-145242000D01*
X161886250Y-145242000D01*
X161948000Y-145254283D01*
X161948000Y-145254283D01*
G37*
X161948000Y-145254283D02*
X166548000Y-145254283D01*
X166609751Y-145242000D01*
X166657012Y-145242000D01*
X167017821Y-145391821D01*
X167426387Y-145392178D01*
X167789845Y-145242000D01*
X173371000Y-145242000D01*
X173371000Y-146238000D01*
X161498000Y-146238000D01*
X161449399Y-146247667D01*
X161408197Y-146275197D01*
X161380667Y-146316399D01*
X161371000Y-146365000D01*
X161371000Y-146649973D01*
X161357380Y-146670357D01*
X161308717Y-146915000D01*
X161308717Y-148015000D01*
X161357380Y-148259643D01*
X161371000Y-148280027D01*
X161371000Y-154738000D01*
X159050606Y-154738000D01*
X154625000Y-150312394D01*
X154625000Y-145242000D01*
X161886250Y-145242000D01*
X161948000Y-145254283D01*
G36*
X150371000Y-138738000D02*
X142875000Y-138738000D01*
X142875000Y-131742000D01*
X150371000Y-131742000D01*
X150371000Y-138738000D01*
X150371000Y-138738000D01*
G37*
X150371000Y-138738000D02*
X142875000Y-138738000D01*
X142875000Y-131742000D01*
X150371000Y-131742000D01*
X150371000Y-138738000D01*
M02*
