G04 #@! TF.FileFunction,Soldermask,Top*
%FSLAX46Y46*%
G04 Gerber Fmt 4.6, Leading zero omitted, Abs format (unit mm)*
G04 Created by KiCad (PCBNEW (2016-08-24 BZR 7090, Git 532a5fb)-product) date 10/24/16 18:53:44*
%MOMM*%
%LPD*%
G01*
G04 APERTURE LIST*
%ADD10C,0.100000*%
%ADD11R,1.727200X1.727200*%
%ADD12O,1.727200X1.727200*%
%ADD13C,3.500000*%
%ADD14O,1.727200X2.032000*%
%ADD15R,0.750000X1.200000*%
%ADD16R,2.000000X1.500000*%
%ADD17R,1.198880X1.198880*%
%ADD18R,1.200000X0.900000*%
%ADD19R,0.900000X1.200000*%
%ADD20R,1.500000X2.000000*%
%ADD21R,0.800100X0.800100*%
%ADD22R,2.100580X5.600700*%
%ADD23R,4.600000X1.100000*%
%ADD24R,9.400000X10.800000*%
%ADD25R,3.000000X1.600000*%
%ADD26R,6.200000X5.800000*%
%ADD27R,3.000000X5.400000*%
%ADD28C,1.700000*%
%ADD29C,1.600000*%
%ADD30R,1.727200X2.032000*%
%ADD31R,1.550000X1.300000*%
%ADD32C,2.000000*%
%ADD33R,3.299460X2.499360*%
%ADD34R,1.700000X0.900000*%
%ADD35R,4.000500X2.400300*%
%ADD36R,2.400300X4.000500*%
%ADD37R,3.599180X1.600200*%
%ADD38R,1.300000X0.700000*%
%ADD39R,1.600200X2.999740*%
%ADD40R,1.200000X0.750000*%
%ADD41R,1.200000X0.600000*%
%ADD42R,0.600000X1.200000*%
%ADD43R,0.700000X1.300000*%
%ADD44C,0.254000*%
G04 APERTURE END LIST*
D10*
D11*
X119818000Y-114390000D03*
D12*
X119818000Y-116930000D03*
X122358000Y-114390000D03*
X122358000Y-116930000D03*
X124898000Y-114390000D03*
X124898000Y-116930000D03*
X127438000Y-114390000D03*
X127438000Y-116930000D03*
X129978000Y-114390000D03*
X129978000Y-116930000D03*
D13*
X130498000Y-161865000D03*
X106498000Y-161865000D03*
D14*
X138938000Y-123825000D03*
X141478000Y-123825000D03*
X144018000Y-123825000D03*
X146558000Y-123825000D03*
X149098000Y-123825000D03*
X151638000Y-123825000D03*
X154178000Y-123825000D03*
X156718000Y-123825000D03*
X161798000Y-123825000D03*
X164338000Y-123825000D03*
X166878000Y-123825000D03*
X169418000Y-123825000D03*
X171958000Y-123825000D03*
X174498000Y-123825000D03*
X129794000Y-75565000D03*
X132334000Y-75565000D03*
X134874000Y-75565000D03*
X137414000Y-75565000D03*
X139954000Y-75565000D03*
X142494000Y-75565000D03*
X145034000Y-75565000D03*
X147574000Y-75565000D03*
X150114000Y-75565000D03*
X152654000Y-75565000D03*
X156718000Y-75565000D03*
X159258000Y-75565000D03*
X161798000Y-75565000D03*
X164338000Y-75565000D03*
X166878000Y-75565000D03*
X169418000Y-75565000D03*
X171958000Y-75565000D03*
X174498000Y-75565000D03*
D15*
X139798000Y-148615000D03*
X139798000Y-150515000D03*
D16*
X153548000Y-152315000D03*
X144048000Y-152315000D03*
X153548000Y-154815000D03*
X144048000Y-154815000D03*
X144098000Y-159965000D03*
X153598000Y-159965000D03*
X144098000Y-157465000D03*
X153598000Y-157465000D03*
D17*
X150748000Y-167315980D03*
X150748000Y-169414020D03*
X148748000Y-167315980D03*
X148748000Y-169414020D03*
D11*
X174498000Y-95885000D03*
D12*
X177038000Y-95885000D03*
X174498000Y-98425000D03*
X177038000Y-98425000D03*
X174498000Y-100965000D03*
X177038000Y-100965000D03*
D18*
X138498000Y-153165000D03*
X140698000Y-153165000D03*
D19*
X148748000Y-163265000D03*
X148748000Y-165465000D03*
X146748000Y-163265000D03*
X146748000Y-165465000D03*
D18*
X140698000Y-142165000D03*
X138498000Y-142165000D03*
D19*
X169998000Y-114015000D03*
X169998000Y-116215000D03*
X171748000Y-114015000D03*
X171748000Y-116215000D03*
X150748000Y-163265000D03*
X150748000Y-165465000D03*
X126498000Y-146765000D03*
X126498000Y-148965000D03*
D20*
X159898000Y-154015000D03*
X159898000Y-162215000D03*
X165098000Y-154015000D03*
X165098000Y-162215000D03*
D21*
X134797240Y-151415000D03*
X134797240Y-153315000D03*
X136796220Y-152365000D03*
D22*
X150498000Y-86516140D03*
X150498000Y-96213860D03*
D23*
X164248000Y-149165000D03*
X164248000Y-147465000D03*
X164248000Y-144065000D03*
D24*
X173398000Y-145765000D03*
D23*
X164248000Y-145765000D03*
X164248000Y-142365000D03*
D25*
X144898000Y-128565000D03*
D26*
X137698000Y-130665000D03*
D25*
X144898000Y-132765000D03*
D27*
X155598000Y-132765000D03*
X165598000Y-132765000D03*
D19*
X142198000Y-159965000D03*
X142198000Y-157765000D03*
D28*
X174498000Y-117945000D03*
X177038000Y-117945000D03*
X174498000Y-115405000D03*
X177038000Y-115405000D03*
X174498000Y-112865000D03*
X177038000Y-112865000D03*
X174498000Y-110325000D03*
X177038000Y-110325000D03*
D29*
X169748000Y-164615000D03*
X168281330Y-169615000D03*
D15*
X141398000Y-148615000D03*
X141398000Y-150515000D03*
D30*
X169958000Y-86365000D03*
D14*
X172498000Y-86365000D03*
X175038000Y-86365000D03*
D31*
X152973000Y-120615000D03*
X145023000Y-120615000D03*
X152973000Y-116115000D03*
X145023000Y-116115000D03*
D17*
X146748000Y-167315980D03*
X146748000Y-169414020D03*
X129998000Y-167315980D03*
X129998000Y-169414020D03*
X131998000Y-167315980D03*
X131998000Y-169414020D03*
D19*
X128498000Y-146765000D03*
X128498000Y-148965000D03*
D32*
X175998000Y-166615000D03*
X173498000Y-166615000D03*
X159248000Y-165865000D03*
X156748000Y-165865000D03*
X154248000Y-165865000D03*
X112198000Y-116365000D03*
X112198000Y-113865000D03*
X112198000Y-111365000D03*
X112198000Y-108865000D03*
D30*
X177578000Y-90115000D03*
D14*
X175038000Y-90115000D03*
X172498000Y-90115000D03*
X169958000Y-90115000D03*
D28*
X144488000Y-84725000D03*
X141948000Y-84725000D03*
X139408000Y-84725000D03*
X139408000Y-102505000D03*
X141948000Y-102505000D03*
X144488000Y-102505000D03*
X114008000Y-102505000D03*
X116548000Y-102505000D03*
X119088000Y-102505000D03*
X119088000Y-84725000D03*
X116548000Y-84725000D03*
X114008000Y-84725000D03*
D32*
X143248000Y-165865000D03*
X140748000Y-165865000D03*
X138248000Y-165865000D03*
X135748000Y-165865000D03*
D33*
X157998000Y-140563940D03*
X157998000Y-147366060D03*
D11*
X107668000Y-79655000D03*
D12*
X107668000Y-77115000D03*
X110208000Y-79655000D03*
X110208000Y-77115000D03*
X112748000Y-79655000D03*
X112748000Y-77115000D03*
X115288000Y-79655000D03*
X115288000Y-77115000D03*
X117828000Y-79655000D03*
X117828000Y-77115000D03*
D18*
X144698000Y-142165000D03*
X142498000Y-142165000D03*
D34*
X136598000Y-154915000D03*
X136598000Y-157815000D03*
D19*
X134398000Y-157465000D03*
X134398000Y-155265000D03*
X132798000Y-155265000D03*
X132798000Y-157465000D03*
D21*
X144948000Y-146964240D03*
X143048000Y-146964240D03*
X143998000Y-148963220D03*
X143044825Y-145765760D03*
X144944825Y-145765760D03*
X143994825Y-143766780D03*
X140548000Y-158164240D03*
X138648000Y-158164240D03*
X139598000Y-160163220D03*
X140548000Y-154864240D03*
X138648000Y-154864240D03*
X139598000Y-156863220D03*
D35*
X169247500Y-157615000D03*
X177248500Y-157615000D03*
D36*
X173398000Y-127864500D03*
X173398000Y-135865500D03*
D37*
X139135275Y-137565000D03*
X144636915Y-137565000D03*
D38*
X156748000Y-161915000D03*
X156748000Y-163815000D03*
D39*
X149798000Y-128565360D03*
X149798000Y-132964640D03*
D34*
X138398000Y-143914999D03*
X138398000Y-146814999D03*
X140906730Y-143914999D03*
X140906730Y-146814999D03*
D40*
X156198000Y-86365000D03*
X154298000Y-86365000D03*
X156198000Y-87865000D03*
X154298000Y-87865000D03*
X154298000Y-93615000D03*
X156198000Y-93615000D03*
X156198000Y-90865000D03*
X154298000Y-90865000D03*
D15*
X146998000Y-88415000D03*
X146998000Y-90315000D03*
X146998000Y-94065000D03*
X146998000Y-92165000D03*
D40*
X156198000Y-95115000D03*
X154298000Y-95115000D03*
D15*
X168748000Y-96665000D03*
X168748000Y-98565000D03*
D40*
X156198000Y-89365000D03*
X154298000Y-89365000D03*
D41*
X158498000Y-91065000D03*
X158498000Y-91865000D03*
X158498000Y-92665000D03*
X158498000Y-93465000D03*
X158498000Y-94265000D03*
X158498000Y-95065000D03*
X158498000Y-95865000D03*
X158498000Y-96665000D03*
D42*
X159948000Y-98115000D03*
X160748000Y-98115000D03*
X161548000Y-98115000D03*
X162348000Y-98115000D03*
X163148000Y-98115000D03*
X163948000Y-98115000D03*
X164748000Y-98115000D03*
X165548000Y-98115000D03*
D41*
X166998000Y-96665000D03*
X166998000Y-95865000D03*
X166998000Y-95065000D03*
X166998000Y-94265000D03*
X166998000Y-93465000D03*
X166998000Y-92665000D03*
X166998000Y-91865000D03*
X166998000Y-91065000D03*
D42*
X165548000Y-89615000D03*
X164748000Y-89615000D03*
X163948000Y-89615000D03*
X163148000Y-89615000D03*
X162348000Y-89615000D03*
X161548000Y-89615000D03*
X160748000Y-89615000D03*
X159948000Y-89615000D03*
D43*
X154298000Y-84615000D03*
X156198000Y-84615000D03*
D18*
X156348000Y-96865000D03*
X154148000Y-96865000D03*
D44*
G36*
X138371000Y-140738000D02*
X133125000Y-140738000D01*
X133125000Y-125992000D01*
X138371000Y-125992000D01*
X138371000Y-140738000D01*
X138371000Y-140738000D01*
G37*
X138371000Y-140738000D02*
X133125000Y-140738000D01*
X133125000Y-125992000D01*
X138371000Y-125992000D01*
X138371000Y-140738000D01*
M02*
