M48
;DRILL file {KiCad (2016-08-24 BZR 7090, Git 532a5fb)-product} date 10/24/16 18:53:51
;FORMAT={-:-/ absolute / metric / decimal}
FMAT,2
METRIC,TZ
T1C0.400
T2C0.500
T3C0.600
T4C1.000
T5C1.016
%
G90
G05
M71
T1
X106.098Y-75.64
X108.998Y-74.949
X127.248Y-126.365
X127.468Y-128.895
X128.468Y-129.895
X128.498Y-126.865
X128.598Y-169.415
X129.218Y-130.645
X129.257Y-127.782
X129.498Y-158.51
X129.968Y-131.395
X130.007Y-128.606
X131.748Y-100.865
X132.498Y-100.115
X132.798Y-153.965
X133.248Y-81.515
X133.273Y-163.14
X133.348Y-169.415
X133.748Y-126.615
X133.748Y-128.115
X133.748Y-129.615
X133.748Y-131.115
X133.748Y-132.615
X133.748Y-134.115
X133.748Y-135.615
X133.748Y-137.115
X133.748Y-138.615
X133.748Y-140.115
X135.748Y-126.615
X135.748Y-128.115
X135.748Y-129.615
X135.748Y-131.115
X135.748Y-132.615
X135.748Y-134.115
X135.748Y-135.615
X135.748Y-137.115
X135.748Y-138.615
X135.748Y-140.115
X136.973Y-162.64
X137.748Y-126.615
X137.748Y-128.115
X137.748Y-129.615
X137.748Y-131.115
X137.748Y-132.615
X137.748Y-134.115
X137.748Y-135.615
X137.748Y-140.115
X138.148Y-78.49
X138.598Y-161.34
X138.598Y-162.615
X139.748Y-126.615
X139.748Y-128.115
X139.748Y-129.615
X139.748Y-131.115
X139.748Y-132.615
X139.748Y-134.115
X139.748Y-135.615
X139.748Y-140.115
X139.798Y-151.865
X140.673Y-161.29
X141.398Y-151.865
X141.748Y-161.865
X141.998Y-162.865
X144.748Y-86.365
X144.948Y-83.215
X145.248Y-169.415
X146.098Y-78.34
X146.098Y-142.165
X146.098Y-154.815
X146.098Y-157.465
X147.748Y-132.865
X147.748Y-134.865
X147.748Y-136.865
X148.198Y-91.265
X148.998Y-116.865
X152.298Y-169.415
X152.973Y-90.865
X152.998Y-86.365
X152.998Y-87.865
X152.998Y-89.365
X152.998Y-93.615
X152.998Y-95.115
X156.856Y-108.782
X158.532Y-112.083
X158.829Y-104.645
X159.748Y-88.115
X159.85Y-104.396
X160.008Y-111.643
X160.748Y-109.365
X160.761Y-103.63
X160.996Y-111.493
X161.508Y-108.715
X161.581Y-104.296
X165.748Y-99.365
X165.893Y-108.76
X166.011Y-105.215
X166.998Y-104.865
X166.998Y-108.715
X167.198Y-147.465
X167.223Y-144.365
X168.748Y-99.915
X169.498Y-141.615
X169.498Y-143.615
X169.498Y-145.615
X169.498Y-147.615
X169.498Y-149.615
X170.128Y-96.7
X170.943Y-96.12
X171.498Y-141.615
X171.498Y-143.615
X171.498Y-145.615
X171.498Y-147.615
X171.498Y-149.615
X172.324Y-94.539
X172.442Y-95.717
X172.748Y-118.865
X172.748Y-120.865
X173.498Y-141.615
X173.498Y-143.615
X173.498Y-145.615
X173.498Y-147.615
X173.498Y-149.615
X175.498Y-141.615
X175.498Y-143.615
X175.498Y-145.615
X175.498Y-147.615
X175.498Y-149.615
X176.998Y-108.365
X177.498Y-141.615
X177.498Y-143.615
X177.498Y-145.615
X177.498Y-147.615
X177.498Y-149.615
X178.748Y-110.365
T2
X107.998Y-118.115
X111.998Y-118.115
X125.998Y-128.715
X127.748Y-143.865
X133.248Y-143.865
X135.248Y-81.615
X141.998Y-82.115
X164.498Y-139.365
X164.498Y-140.865
X165.498Y-155.865
X166.498Y-156.865
T3
X168.281Y-169.615
X169.748Y-164.615
T4
X112.198Y-108.865
X112.198Y-111.365
X112.198Y-113.865
X112.198Y-116.365
X114.008Y-84.725
X114.008Y-102.505
X116.548Y-84.725
X116.548Y-102.505
X119.088Y-84.725
X119.088Y-102.505
X135.748Y-165.865
X138.248Y-165.865
X139.408Y-84.725
X139.408Y-102.505
X140.748Y-165.865
X141.948Y-84.725
X141.948Y-102.505
X143.248Y-165.865
X144.488Y-84.725
X144.488Y-102.505
X154.248Y-165.865
X156.748Y-165.865
X159.248Y-165.865
X173.498Y-166.615
X174.498Y-110.325
X174.498Y-112.865
X174.498Y-115.405
X174.498Y-117.945
X175.998Y-166.615
X177.038Y-110.325
X177.038Y-112.865
X177.038Y-115.405
X177.038Y-117.945
T5
X107.668Y-77.115
X107.668Y-79.655
X110.208Y-77.115
X110.208Y-79.655
X112.748Y-77.115
X112.748Y-79.655
X115.288Y-77.115
X115.288Y-79.655
X117.828Y-77.115
X117.828Y-79.655
X119.818Y-114.39
X119.818Y-116.93
X122.358Y-114.39
X122.358Y-116.93
X124.898Y-114.39
X124.898Y-116.93
X127.438Y-114.39
X127.438Y-116.93
X129.794Y-75.565
X129.978Y-114.39
X129.978Y-116.93
X132.334Y-75.565
X134.874Y-75.565
X137.414Y-75.565
X138.938Y-123.825
X139.954Y-75.565
X141.478Y-123.825
X142.494Y-75.565
X144.018Y-123.825
X145.034Y-75.565
X146.558Y-123.825
X147.574Y-75.565
X149.098Y-123.825
X150.114Y-75.565
X151.638Y-123.825
X152.654Y-75.565
X154.178Y-123.825
X156.718Y-75.565
X156.718Y-123.825
X159.258Y-75.565
X161.798Y-75.565
X161.798Y-123.825
X164.338Y-75.565
X164.338Y-123.825
X166.878Y-75.565
X166.878Y-123.825
X169.418Y-75.565
X169.418Y-123.825
X169.958Y-86.365
X169.958Y-90.115
X171.958Y-75.565
X171.958Y-123.825
X172.498Y-86.365
X172.498Y-90.115
X174.498Y-75.565
X174.498Y-95.885
X174.498Y-98.425
X174.498Y-100.965
X174.498Y-123.825
X175.038Y-86.365
X175.038Y-90.115
X177.038Y-95.885
X177.038Y-98.425
X177.038Y-100.965
X177.578Y-90.115
T0
M30
