G04 #@! TF.FileFunction,Copper,L4,Bot,Signal*
%FSLAX46Y46*%
G04 Gerber Fmt 4.6, Leading zero omitted, Abs format (unit mm)*
G04 Created by KiCad (PCBNEW (2016-08-24 BZR 7090, Git 532a5fb)-product) date 10/24/16 18:33:33*
%MOMM*%
%LPD*%
G01*
G04 APERTURE LIST*
%ADD10C,0.100000*%
%ADD11C,1.000000*%
%ADD12C,3.599180*%
%ADD13R,1.600000X1.600000*%
%ADD14C,1.600000*%
%ADD15C,2.000000*%
%ADD16C,2.600000*%
%ADD17R,0.797560X0.797560*%
%ADD18R,1.727200X1.727200*%
%ADD19O,1.727200X1.727200*%
%ADD20R,0.900000X1.200000*%
%ADD21C,0.700000*%
%ADD22C,0.200000*%
G04 APERTURE END LIST*
D10*
D11*
X151000000Y-124300000D03*
X144500000Y-124300000D03*
X156100000Y-103000000D03*
X163300000Y-99600000D03*
X161900000Y-99600000D03*
D12*
X140498920Y-118199760D03*
X140450660Y-106800240D03*
D13*
X146800660Y-108100720D03*
D14*
X149350820Y-109299600D03*
X146800660Y-110600080D03*
X149350820Y-111900560D03*
X146800660Y-113099440D03*
X149350820Y-114399920D03*
X146800660Y-115700400D03*
X149350820Y-116899280D03*
D15*
X136450160Y-105850280D03*
X136450160Y-108400440D03*
X136450160Y-116599560D03*
X136450160Y-119149720D03*
D16*
X143450400Y-104849520D03*
X143450400Y-120249540D03*
D17*
X181000000Y-104549300D03*
X181000000Y-103050700D03*
D18*
X187000000Y-111160000D03*
D19*
X184460000Y-111160000D03*
X187000000Y-108620000D03*
X184460000Y-108620000D03*
X187000000Y-106080000D03*
X184460000Y-106080000D03*
X187000000Y-103540000D03*
X184460000Y-103540000D03*
X187000000Y-101000000D03*
X184460000Y-101000000D03*
D11*
X155000000Y-103000000D03*
X144500000Y-125500000D03*
X151000000Y-125400000D03*
D20*
X179200000Y-104900000D03*
X179200000Y-102700000D03*
X177600000Y-104900000D03*
X177600000Y-102700000D03*
D21*
X185050000Y-122050000D03*
X151000000Y-104200000D03*
X151800000Y-104200000D03*
X164900000Y-102500000D03*
X166600000Y-102400000D03*
X179488567Y-115421483D03*
X187350000Y-115550000D03*
X183000000Y-122040000D03*
X182990000Y-113770000D03*
X177600000Y-101450000D03*
X176000000Y-101450000D03*
X174400000Y-101450000D03*
X172800000Y-101450000D03*
X171200000Y-101450000D03*
X170500000Y-107610000D03*
X179200000Y-108400000D03*
X170160000Y-111500000D03*
X180600000Y-122600000D03*
X166590000Y-119720000D03*
X161400000Y-119200000D03*
X173349980Y-118914321D03*
X171573198Y-119346055D03*
X169690000Y-119360000D03*
X167010924Y-114719759D03*
X163380000Y-111590000D03*
X154910000Y-110990000D03*
X154500000Y-118250000D03*
X178250000Y-118550000D03*
X179200000Y-101450000D03*
X164950000Y-103780000D03*
X164940000Y-105380000D03*
X164940000Y-106950000D03*
X174790000Y-119240000D03*
X172517506Y-119312573D03*
X170610000Y-119390000D03*
X166610000Y-117840000D03*
X166990000Y-113820000D03*
X167665317Y-111664165D03*
X157000000Y-112000000D03*
X155750000Y-104500000D03*
X158661090Y-117138910D03*
X158400000Y-112200000D03*
X159000000Y-121800000D03*
X176200000Y-116000000D03*
X159000000Y-120000000D03*
X176200000Y-115000000D03*
X176350000Y-112500000D03*
X183016970Y-107256970D03*
X176350000Y-110500000D03*
X182150000Y-104550000D03*
D22*
X181000000Y-102287998D02*
X185747998Y-102287998D01*
X185747998Y-102287998D02*
X187000000Y-103540000D01*
X179512001Y-100799999D02*
X179950001Y-101237999D01*
X181000000Y-103050700D02*
X181000000Y-102287998D01*
X181000000Y-102287998D02*
X179512001Y-100799999D01*
X179512001Y-100799999D02*
X178250001Y-100799999D01*
X178250001Y-100799999D02*
X177600000Y-101450000D01*
X179200000Y-102700000D02*
X179200000Y-101450000D01*
X177600000Y-102700000D02*
X179200000Y-102700000D01*
X158400000Y-112200000D02*
X158400000Y-116877820D01*
X158400000Y-116877820D02*
X158661090Y-117138910D01*
X172000000Y-116000000D02*
X166200000Y-121800000D01*
X166200000Y-121800000D02*
X159000000Y-121800000D01*
X176200000Y-116000000D02*
X172000000Y-116000000D01*
X171834310Y-115599992D02*
X167064301Y-120370001D01*
X167064301Y-120370001D02*
X159370001Y-120370001D01*
X159370001Y-120370001D02*
X159000000Y-120000000D01*
X176200000Y-115000000D02*
X172434302Y-115000000D01*
X172434302Y-115000000D02*
X171834310Y-115599992D01*
X176350000Y-112500000D02*
X180580000Y-112500000D01*
X180580000Y-112500000D02*
X184460000Y-108620000D01*
X177600000Y-104900000D02*
X177600000Y-105700000D01*
X177600000Y-105700000D02*
X175699999Y-107600001D01*
X175699999Y-107600001D02*
X175699999Y-111849999D01*
X175699999Y-111849999D02*
X176000001Y-112150001D01*
X176000001Y-112150001D02*
X176350000Y-112500000D01*
X183016970Y-107256970D02*
X183016970Y-104983030D01*
X183016970Y-104983030D02*
X184460000Y-103540000D01*
X179900000Y-109680000D02*
X181570000Y-109680000D01*
X181570000Y-109680000D02*
X183900000Y-107350000D01*
X183900000Y-107350000D02*
X185730000Y-107350000D01*
X185730000Y-107350000D02*
X187000000Y-108620000D01*
X177664974Y-109680000D02*
X179900000Y-109680000D01*
X179200000Y-104900000D02*
X179200000Y-107437998D01*
X179200000Y-107437998D02*
X179900000Y-108137998D01*
X179900000Y-108137998D02*
X179900000Y-109680000D01*
X176350000Y-110500000D02*
X176844974Y-110500000D01*
X176844974Y-110500000D02*
X177664974Y-109680000D01*
X181000000Y-104549300D02*
X182149300Y-104549300D01*
X182149300Y-104549300D02*
X182150000Y-104550000D01*
M02*
